<svg xmlns="http://www.w3.org/2000/svg" xmlns:xlink="http://www.w3.org/1999/xlink" width="50" zoomAndPan="magnify" viewBox="0 0 37.5 37.499999" height="50" preserveAspectRatio="xMidYMid meet" version="1.0"><defs><g/><clipPath id="b329d2258c"><path d="M 0 0 L 37.007812 0 L 37.007812 37.007812 L 0 37.007812 Z M 0 0 " clip-rule="nonzero"/></clipPath><clipPath id="69918b221f"><path d="M 3 1 L 34.386719 1 L 34.386719 36.691406 L 3 36.691406 Z M 3 1 " clip-rule="nonzero"/></clipPath></defs><g clip-path="url(#b329d2258c)"><path fill="#ffffff" d="M 0 0 L 37.007812 0 L 37.007812 37.007812 L 0 37.007812 Z M 0 0 " fill-opacity="1" fill-rule="nonzero"/><path fill="#ffffff" d="M 0 0 L 37.007812 0 L 37.007812 37.007812 L 0 37.007812 Z M 0 0 " fill-opacity="1" fill-rule="nonzero"/></g><g fill="#008080" fill-opacity="1"><g transform="translate(11.597489, 10.807578)"><g><path d="M 1.109375 -1.796875 C 1.242188 -1.796875 1.367188 -1.773438 1.484375 -1.734375 C 1.597656 -1.691406 1.695312 -1.632812 1.78125 -1.5625 C 1.875 -1.488281 1.945312 -1.394531 2 -1.28125 C 2.050781 -1.175781 2.078125 -1.050781 2.078125 -0.90625 L 2.078125 -0.828125 C 2.078125 -0.773438 2.050781 -0.75 2 -0.75 L 0.734375 -0.75 C 0.734375 -0.632812 0.765625 -0.539062 0.828125 -0.46875 C 0.898438 -0.394531 0.992188 -0.359375 1.109375 -0.359375 C 1.191406 -0.359375 1.257812 -0.375 1.3125 -0.40625 C 1.375 -0.445312 1.414062 -0.492188 1.4375 -0.546875 C 1.445312 -0.566406 1.457031 -0.582031 1.46875 -0.59375 C 1.476562 -0.601562 1.492188 -0.609375 1.515625 -0.609375 L 1.953125 -0.609375 C 1.984375 -0.609375 2.003906 -0.597656 2.015625 -0.578125 C 2.035156 -0.566406 2.039062 -0.546875 2.03125 -0.515625 C 1.976562 -0.390625 1.90625 -0.28125 1.8125 -0.1875 C 1.726562 -0.101562 1.625 -0.0390625 1.5 0 C 1.382812 0.0390625 1.253906 0.0625 1.109375 0.0625 C 0.960938 0.0625 0.828125 0.0390625 0.703125 0 C 0.578125 -0.0390625 0.46875 -0.101562 0.375 -0.1875 C 0.289062 -0.269531 0.222656 -0.367188 0.171875 -0.484375 C 0.128906 -0.597656 0.109375 -0.722656 0.109375 -0.859375 C 0.109375 -1.003906 0.128906 -1.132812 0.171875 -1.25 C 0.222656 -1.363281 0.296875 -1.457031 0.390625 -1.53125 C 0.484375 -1.613281 0.585938 -1.675781 0.703125 -1.71875 C 0.828125 -1.769531 0.960938 -1.796875 1.109375 -1.796875 Z M 0.734375 -1.078125 L 1.453125 -1.078125 C 1.441406 -1.171875 1.40625 -1.242188 1.34375 -1.296875 C 1.28125 -1.359375 1.195312 -1.390625 1.09375 -1.390625 C 0.988281 -1.390625 0.90625 -1.359375 0.84375 -1.296875 C 0.789062 -1.242188 0.753906 -1.171875 0.734375 -1.078125 Z M 0.734375 -1.078125 "/></g></g></g><g fill="#008080" fill-opacity="1"><g transform="translate(13.784802, 10.807578)"><g><path d="M 1.5625 -1.5625 L 1.5625 -2.9375 C 1.757812 -2.894531 1.90625 -2.8125 2 -2.6875 C 2.101562 -2.5625 2.15625 -2.398438 2.15625 -2.203125 L 2.15625 0.046875 C 1.914062 0.046875 1.75 -0.0546875 1.65625 -0.265625 C 1.582031 -0.160156 1.484375 -0.078125 1.359375 -0.015625 C 1.242188 0.0351562 1.117188 0.0625 0.984375 0.0625 C 0.847656 0.0625 0.726562 0.0390625 0.625 0 C 0.519531 -0.0507812 0.425781 -0.113281 0.34375 -0.1875 C 0.269531 -0.269531 0.210938 -0.367188 0.171875 -0.484375 C 0.128906 -0.597656 0.109375 -0.722656 0.109375 -0.859375 C 0.109375 -1.003906 0.128906 -1.128906 0.171875 -1.234375 C 0.210938 -1.347656 0.269531 -1.445312 0.34375 -1.53125 C 0.425781 -1.613281 0.519531 -1.675781 0.625 -1.71875 C 0.726562 -1.769531 0.847656 -1.796875 0.984375 -1.796875 C 1.097656 -1.796875 1.203125 -1.773438 1.296875 -1.734375 C 1.398438 -1.691406 1.488281 -1.632812 1.5625 -1.5625 Z M 1.15625 -0.40625 C 1.238281 -0.40625 1.3125 -0.425781 1.375 -0.46875 C 1.4375 -0.507812 1.484375 -0.5625 1.515625 -0.625 C 1.546875 -0.695312 1.5625 -0.773438 1.5625 -0.859375 C 1.5625 -0.953125 1.546875 -1.03125 1.515625 -1.09375 C 1.484375 -1.164062 1.4375 -1.21875 1.375 -1.25 C 1.3125 -1.289062 1.238281 -1.3125 1.15625 -1.3125 C 1.070312 -1.3125 1 -1.289062 0.9375 -1.25 C 0.875 -1.21875 0.828125 -1.164062 0.796875 -1.09375 C 0.765625 -1.03125 0.75 -0.953125 0.75 -0.859375 C 0.75 -0.773438 0.765625 -0.695312 0.796875 -0.625 C 0.828125 -0.5625 0.875 -0.507812 0.9375 -0.46875 C 1 -0.425781 1.070312 -0.40625 1.15625 -0.40625 Z M 1.15625 -0.40625 "/></g></g></g><g fill="#008080" fill-opacity="1"><g transform="translate(16.137048, 10.807578)"><g><path d="M 0.453125 -2.078125 C 0.378906 -2.078125 0.3125 -2.085938 0.25 -2.109375 C 0.1875 -2.128906 0.132812 -2.160156 0.09375 -2.203125 C 0.0507812 -2.253906 0.03125 -2.316406 0.03125 -2.390625 C 0.03125 -2.460938 0.0507812 -2.519531 0.09375 -2.5625 C 0.132812 -2.613281 0.1875 -2.648438 0.25 -2.671875 C 0.3125 -2.691406 0.378906 -2.703125 0.453125 -2.703125 C 0.523438 -2.703125 0.59375 -2.691406 0.65625 -2.671875 C 0.726562 -2.648438 0.785156 -2.613281 0.828125 -2.5625 C 0.867188 -2.519531 0.890625 -2.460938 0.890625 -2.390625 C 0.890625 -2.316406 0.867188 -2.253906 0.828125 -2.203125 C 0.785156 -2.160156 0.726562 -2.128906 0.65625 -2.109375 C 0.59375 -2.085938 0.523438 -2.078125 0.453125 -2.078125 Z M 0.703125 0 L 0.265625 0 C 0.210938 0 0.1875 -0.0234375 0.1875 -0.078125 L 0.1875 -1.765625 C 0.375 -1.722656 0.519531 -1.640625 0.625 -1.515625 C 0.726562 -1.390625 0.78125 -1.226562 0.78125 -1.03125 L 0.78125 -0.078125 C 0.78125 -0.0234375 0.753906 0 0.703125 0 Z M 0.703125 0 "/></g></g></g><g fill="#7acb53" fill-opacity="1"><g transform="translate(17.080139, 10.807578)"><g><path d="M 1.1875 -0.609375 L 0.171875 -0.609375 C 0.117188 -0.609375 0.09375 -0.632812 0.09375 -0.6875 L 0.09375 -1.046875 C 0.09375 -1.097656 0.117188 -1.125 0.171875 -1.125 L 1.1875 -1.125 C 1.238281 -1.125 1.265625 -1.097656 1.265625 -1.046875 L 1.265625 -0.6875 C 1.265625 -0.632812 1.238281 -0.609375 1.1875 -0.609375 Z M 1.1875 -0.609375 "/></g></g></g><g fill="#7acb53" fill-opacity="1"><g transform="translate(18.438865, 10.807578)"><g><path d="M 0.3125 -0.53125 L 1.640625 -0.53125 C 1.691406 -0.53125 1.71875 -0.503906 1.71875 -0.453125 L 1.71875 -0.078125 C 1.71875 -0.0234375 1.691406 0 1.640625 0 L 0.296875 0 C 0.242188 0 0.21875 -0.0234375 0.21875 -0.078125 L 0.21875 -2.59375 C 0.21875 -2.644531 0.242188 -2.671875 0.296875 -2.671875 L 0.71875 -2.671875 C 0.769531 -2.671875 0.796875 -2.644531 0.796875 -2.59375 L 0.796875 -1.4375 C 0.796875 -1.269531 0.773438 -1.128906 0.734375 -1.015625 C 0.691406 -0.898438 0.632812 -0.800781 0.5625 -0.71875 C 0.488281 -0.644531 0.40625 -0.582031 0.3125 -0.53125 Z M 0.3125 -0.53125 "/></g></g></g><g fill="#7acb53" fill-opacity="1"><g transform="translate(20.178506, 10.807578)"><g><path d="M 0.453125 -2.078125 C 0.378906 -2.078125 0.3125 -2.085938 0.25 -2.109375 C 0.1875 -2.128906 0.132812 -2.160156 0.09375 -2.203125 C 0.0507812 -2.253906 0.03125 -2.316406 0.03125 -2.390625 C 0.03125 -2.460938 0.0507812 -2.519531 0.09375 -2.5625 C 0.132812 -2.613281 0.1875 -2.648438 0.25 -2.671875 C 0.3125 -2.691406 0.378906 -2.703125 0.453125 -2.703125 C 0.523438 -2.703125 0.59375 -2.691406 0.65625 -2.671875 C 0.726562 -2.648438 0.785156 -2.613281 0.828125 -2.5625 C 0.867188 -2.519531 0.890625 -2.460938 0.890625 -2.390625 C 0.890625 -2.316406 0.867188 -2.253906 0.828125 -2.203125 C 0.785156 -2.160156 0.726562 -2.128906 0.65625 -2.109375 C 0.59375 -2.085938 0.523438 -2.078125 0.453125 -2.078125 Z M 0.703125 0 L 0.265625 0 C 0.210938 0 0.1875 -0.0234375 0.1875 -0.078125 L 0.1875 -1.765625 C 0.375 -1.722656 0.519531 -1.640625 0.625 -1.515625 C 0.726562 -1.390625 0.78125 -1.226562 0.78125 -1.03125 L 0.78125 -0.078125 C 0.78125 -0.0234375 0.753906 0 0.703125 0 Z M 0.703125 0 "/></g></g></g><g fill="#7acb53" fill-opacity="1"><g transform="translate(21.120975, 10.807578)"><g><path d="M 1.296875 -1.796875 C 1.453125 -1.796875 1.578125 -1.757812 1.671875 -1.6875 C 1.765625 -1.625 1.832031 -1.53125 1.875 -1.40625 C 1.925781 -1.289062 1.953125 -1.15625 1.953125 -1 L 1.953125 -0.078125 C 1.953125 -0.0234375 1.925781 0 1.875 0 L 1.4375 0 C 1.382812 0 1.359375 -0.0234375 1.359375 -0.078125 L 1.359375 -1 C 1.359375 -1.101562 1.335938 -1.179688 1.296875 -1.234375 C 1.253906 -1.296875 1.191406 -1.328125 1.109375 -1.328125 C 1.023438 -1.328125 0.953125 -1.296875 0.890625 -1.234375 C 0.828125 -1.171875 0.789062 -1.082031 0.78125 -0.96875 L 0.78125 -0.078125 C 0.78125 -0.0234375 0.753906 0 0.703125 0 L 0.265625 0 C 0.210938 0 0.1875 -0.0234375 0.1875 -0.078125 L 0.1875 -1.765625 C 0.300781 -1.742188 0.398438 -1.703125 0.484375 -1.640625 C 0.566406 -1.585938 0.632812 -1.515625 0.6875 -1.421875 C 0.769531 -1.554688 0.863281 -1.648438 0.96875 -1.703125 C 1.070312 -1.765625 1.179688 -1.796875 1.296875 -1.796875 Z M 1.296875 -1.796875 "/></g></g></g><g fill="#7acb53" fill-opacity="1"><g transform="translate(23.24153, 10.807578)"><g><path d="M 1.34375 -0.90625 L 2.09375 -0.09375 C 2.113281 -0.0703125 2.117188 -0.0507812 2.109375 -0.03125 C 2.097656 -0.0078125 2.078125 0 2.046875 0 L 1.4375 0 C 1.40625 0 1.375 -0.015625 1.34375 -0.046875 L 0.78125 -0.765625 L 0.78125 -0.078125 C 0.78125 -0.0234375 0.753906 0 0.703125 0 L 0.265625 0 C 0.210938 0 0.1875 -0.0234375 0.1875 -0.078125 L 0.1875 -2.9375 C 0.375 -2.894531 0.519531 -2.8125 0.625 -2.6875 C 0.726562 -2.5625 0.78125 -2.398438 0.78125 -2.203125 L 0.78125 -1.03125 L 1.328125 -1.6875 C 1.347656 -1.71875 1.378906 -1.734375 1.421875 -1.734375 L 2 -1.734375 C 2.039062 -1.734375 2.0625 -1.722656 2.0625 -1.703125 C 2.070312 -1.679688 2.066406 -1.65625 2.046875 -1.625 Z M 1.34375 -0.90625 "/></g></g></g><g clip-path="url(#69918b221f)"><path fill="#008080" d="M 32.078125 3.257812 C 30.671875 1.921875 28.792969 1.175781 26.855469 1.183594 C 24.855469 1.191406 22.976562 1.972656 21.5625 3.386719 L 18.863281 6.085938 L 16.230469 3.457031 C 13.300781 0.523438 8.527344 0.433594 5.566406 3.335938 C 2.578125 6.265625 2.5625 11.082031 5.515625 14.035156 L 19.804688 28.328125 C 21.4375 29.957031 21.511719 32.613281 19.914062 34.273438 C 18.277344 35.976562 15.558594 35.996094 13.898438 34.332031 L 10.359375 30.792969 C 10.210938 30.644531 10.195312 30.410156 10.324219 30.238281 C 10.84375 29.550781 11.136719 28.679688 11.070312 27.738281 C 10.941406 25.878906 9.421875 24.382812 7.5625 24.289062 C 5.40625 24.175781 3.621094 25.910156 3.648438 28.046875 C 3.675781 30.027344 5.289062 31.660156 7.269531 31.710938 C 7.90625 31.726562 8.507812 31.582031 9.039062 31.3125 C 9.199219 31.230469 9.398438 31.265625 9.523438 31.390625 L 13.179688 35.050781 C 14.199219 36.066406 15.539062 36.578125 16.875 36.578125 C 18.210938 36.578125 19.550781 36.066406 20.570312 35.050781 C 22.605469 33.011719 22.605469 29.699219 20.570312 27.660156 L 6.230469 13.320312 C 3.6875 10.78125 3.6875 6.644531 6.230469 4.105469 C 8.773438 1.5625 12.90625 1.5625 15.445312 4.105469 L 18.492188 7.148438 C 18.59375 7.25 18.726562 7.296875 18.863281 7.292969 C 18.996094 7.296875 19.132812 7.25 19.234375 7.148438 L 22.214844 4.164062 C 23.453125 2.925781 25.125 2.199219 26.871094 2.195312 C 28.617188 2.191406 30.261719 2.871094 31.496094 4.105469 C 32.726562 5.335938 33.40625 6.976562 33.402344 8.722656 C 33.402344 10.472656 32.671875 12.144531 31.433594 13.382812 L 30.46875 14.347656 C 30.390625 14.425781 30.28125 14.46875 30.171875 14.46875 L 27.296875 14.46875 C 27.136719 14.46875 26.988281 14.378906 26.917969 14.238281 L 25.53125 11.460938 C 25.375 11.148438 24.933594 11.148438 24.777344 11.460938 L 22.390625 16.230469 C 22.234375 16.539062 21.792969 16.539062 21.636719 16.230469 L 20.820312 14.597656 C 20.667969 14.289062 20.222656 14.289062 20.066406 14.597656 L 19.253906 16.226562 C 19.097656 16.539062 18.65625 16.539062 18.5 16.226562 L 16.113281 11.460938 C 15.960938 11.148438 15.515625 11.148438 15.359375 11.460938 L 13.972656 14.234375 C 13.902344 14.378906 13.753906 14.46875 13.597656 14.46875 L 11.050781 14.46875 C 10.773438 14.46875 10.535156 14.683594 10.523438 14.960938 C 10.515625 15.246094 10.746094 15.480469 11.03125 15.480469 L 14.222656 15.480469 C 14.382812 15.480469 14.527344 15.390625 14.597656 15.246094 L 15.359375 13.722656 C 15.515625 13.410156 15.960938 13.410156 16.113281 13.722656 L 18.5 18.492188 C 18.65625 18.800781 19.097656 18.800781 19.253906 18.492188 L 20.066406 16.859375 C 20.222656 16.550781 20.667969 16.550781 20.820312 16.859375 L 21.636719 18.492188 C 21.792969 18.800781 22.234375 18.800781 22.390625 18.492188 L 24.773438 13.722656 C 24.929688 13.414062 25.375 13.410156 25.527344 13.722656 L 26.292969 15.25 C 26.363281 15.390625 26.511719 15.480469 26.667969 15.480469 L 30.554688 15.480469 C 30.585938 15.480469 30.617188 15.476562 30.644531 15.472656 C 30.648438 15.472656 30.648438 15.472656 30.652344 15.472656 C 30.679688 15.464844 30.710938 15.457031 30.738281 15.445312 C 30.742188 15.445312 30.742188 15.445312 30.746094 15.445312 C 30.773438 15.433594 30.800781 15.417969 30.828125 15.402344 C 30.828125 15.402344 30.832031 15.398438 30.835938 15.398438 C 30.859375 15.378906 30.886719 15.359375 30.910156 15.335938 L 32.136719 14.109375 C 33.585938 12.660156 34.429688 10.699219 34.414062 8.648438 C 34.398438 6.601562 33.566406 4.679688 32.078125 3.257812 Z M 4.660156 27.996094 C 4.660156 26.507812 5.875 25.292969 7.363281 25.292969 C 8.851562 25.292969 10.066406 26.507812 10.066406 27.996094 C 10.066406 29.488281 8.851562 30.699219 7.363281 30.699219 C 5.875 30.699219 4.660156 29.488281 4.660156 27.996094 Z M 4.660156 27.996094 " fill-opacity="1" fill-rule="nonzero"/></g></svg>