<svg xmlns="http://www.w3.org/2000/svg" xmlns:xlink="http://www.w3.org/1999/xlink" width="205" zoomAndPan="magnify" viewBox="0 0 153.75 82.499998" height="110" preserveAspectRatio="xMidYMid meet" version="1.0"><defs><g/><clipPath id="b736bad13c"><path d="M 0.339844 0 L 153.164062 0 L 153.164062 82.003906 L 0.339844 82.003906 Z M 0.339844 0 " clip-rule="nonzero"/></clipPath><clipPath id="e9d625cadc"><path d="M 51.378906 39.484375 L 143.945312 39.484375 L 143.945312 41.441406 L 51.378906 41.441406 Z M 51.378906 39.484375 " clip-rule="nonzero"/></clipPath><clipPath id="a4b518a1ad"><path d="M 52.355469 39.484375 L 142.957031 39.484375 C 143.496094 39.484375 143.9375 39.921875 143.9375 40.464844 C 143.9375 41.003906 143.496094 41.441406 142.957031 41.441406 L 52.355469 41.441406 C 51.816406 41.441406 51.378906 41.003906 51.378906 40.464844 C 51.378906 39.921875 51.816406 39.484375 52.355469 39.484375 Z M 52.355469 39.484375 " clip-rule="nonzero"/></clipPath><clipPath id="ddab1f4cae"><path d="M 1 14 L 59.230469 14 L 59.230469 80.503906 L 1 80.503906 Z M 1 14 " clip-rule="nonzero"/></clipPath><clipPath id="2bb3adfec1"><path d="M 111.101562 19.863281 L 117.066406 19.863281 L 117.066406 25.828125 L 111.101562 25.828125 Z M 111.101562 19.863281 " clip-rule="nonzero"/></clipPath><clipPath id="313af43bcf"><path d="M 103.957031 12.257812 L 153 12.257812 L 153 80.84375 L 103.957031 80.84375 Z M 103.957031 12.257812 " clip-rule="nonzero"/></clipPath></defs><g clip-path="url(#b736bad13c)"><path fill="#ffffff" d="M 0.339844 0 L 153.164062 0 L 153.164062 82.003906 L 0.339844 82.003906 Z M 0.339844 0 " fill-opacity="1" fill-rule="nonzero"/><path fill="#ffffff" d="M 0.339844 0 L 153.164062 0 L 153.164062 82.003906 L 0.339844 82.003906 Z M 0.339844 0 " fill-opacity="1" fill-rule="nonzero"/></g><g clip-path="url(#e9d625cadc)"><g clip-path="url(#a4b518a1ad)"><path fill="#008080" d="M 51.378906 39.484375 L 143.9375 39.484375 L 143.9375 41.441406 L 51.378906 41.441406 Z M 51.378906 39.484375 " fill-opacity="1" fill-rule="nonzero"/></g></g><g fill="#008080" fill-opacity="1"><g transform="translate(60.136733, 36.873165)"><g><path d="M 6.71875 -10.796875 C 7.507812 -10.796875 8.25 -10.675781 8.9375 -10.4375 C 9.632812 -10.207031 10.25 -9.863281 10.78125 -9.40625 C 11.3125 -8.957031 11.726562 -8.398438 12.03125 -7.734375 C 12.332031 -7.066406 12.484375 -6.300781 12.484375 -5.4375 L 12.484375 -5.015625 C 12.484375 -4.691406 12.328125 -4.53125 12.015625 -4.53125 L 4.390625 -4.53125 C 4.441406 -3.820312 4.664062 -3.25 5.0625 -2.8125 C 5.457031 -2.375 5.984375 -2.15625 6.640625 -2.15625 C 7.160156 -2.15625 7.585938 -2.257812 7.921875 -2.46875 C 8.265625 -2.6875 8.507812 -2.953125 8.65625 -3.265625 C 8.71875 -3.398438 8.785156 -3.5 8.859375 -3.5625 C 8.941406 -3.632812 9.046875 -3.671875 9.171875 -3.671875 L 11.796875 -3.671875 C 11.960938 -3.671875 12.085938 -3.617188 12.171875 -3.515625 C 12.253906 -3.421875 12.265625 -3.289062 12.203125 -3.125 C 11.921875 -2.332031 11.515625 -1.675781 10.984375 -1.15625 C 10.453125 -0.644531 9.820312 -0.257812 9.09375 0 C 8.375 0.25 7.582031 0.375 6.71875 0.375 C 5.8125 0.375 4.984375 0.25 4.234375 0 C 3.492188 -0.257812 2.859375 -0.628906 2.328125 -1.109375 C 1.796875 -1.597656 1.378906 -2.1875 1.078125 -2.875 C 0.785156 -3.5625 0.640625 -4.335938 0.640625 -5.203125 C 0.640625 -6.054688 0.789062 -6.828125 1.09375 -7.515625 C 1.394531 -8.203125 1.816406 -8.789062 2.359375 -9.28125 C 2.898438 -9.769531 3.539062 -10.144531 4.28125 -10.40625 C 5.03125 -10.664062 5.84375 -10.796875 6.71875 -10.796875 Z M 4.4375 -6.453125 L 8.71875 -6.453125 C 8.6875 -7.023438 8.484375 -7.488281 8.109375 -7.84375 C 7.734375 -8.207031 7.226562 -8.390625 6.59375 -8.390625 C 5.9375 -8.390625 5.4375 -8.207031 5.09375 -7.84375 C 4.757812 -7.488281 4.539062 -7.023438 4.4375 -6.453125 Z M 4.4375 -6.453125 "/></g></g></g><g fill="#008080" fill-opacity="1"><g transform="translate(73.302435, 36.873165)"><g><path d="M 9.453125 -9.4375 L 9.453125 -17.734375 C 10.609375 -17.492188 11.488281 -16.988281 12.09375 -16.21875 C 12.695312 -15.457031 13 -14.460938 13 -13.234375 L 13 0.234375 C 11.550781 0.234375 10.539062 -0.367188 9.96875 -1.578125 C 9.507812 -0.960938 8.929688 -0.484375 8.234375 -0.140625 C 7.535156 0.203125 6.753906 0.375 5.890625 0.375 C 5.117188 0.375 4.414062 0.238281 3.78125 -0.03125 C 3.144531 -0.300781 2.59375 -0.679688 2.125 -1.171875 C 1.664062 -1.671875 1.3125 -2.265625 1.0625 -2.953125 C 0.8125 -3.640625 0.6875 -4.394531 0.6875 -5.21875 C 0.6875 -6.039062 0.8125 -6.789062 1.0625 -7.46875 C 1.3125 -8.15625 1.664062 -8.742188 2.125 -9.234375 C 2.59375 -9.734375 3.144531 -10.117188 3.78125 -10.390625 C 4.414062 -10.660156 5.117188 -10.796875 5.890625 -10.796875 C 6.609375 -10.796875 7.269531 -10.675781 7.875 -10.4375 C 8.476562 -10.207031 9.003906 -9.875 9.453125 -9.4375 Z M 6.96875 -2.453125 C 7.445312 -2.453125 7.875 -2.566406 8.25 -2.796875 C 8.625 -3.035156 8.914062 -3.359375 9.125 -3.765625 C 9.34375 -4.179688 9.453125 -4.660156 9.453125 -5.203125 C 9.453125 -5.734375 9.34375 -6.207031 9.125 -6.625 C 8.914062 -7.039062 8.625 -7.363281 8.25 -7.59375 C 7.875 -7.820312 7.445312 -7.9375 6.96875 -7.9375 C 6.488281 -7.9375 6.0625 -7.820312 5.6875 -7.59375 C 5.3125 -7.363281 5.015625 -7.039062 4.796875 -6.625 C 4.585938 -6.207031 4.484375 -5.734375 4.484375 -5.203125 C 4.484375 -4.660156 4.585938 -4.179688 4.796875 -3.765625 C 5.015625 -3.359375 5.3125 -3.035156 5.6875 -2.796875 C 6.0625 -2.566406 6.488281 -2.453125 6.96875 -2.453125 Z M 6.96875 -2.453125 "/></g></g></g><g fill="#008080" fill-opacity="1"><g transform="translate(87.460884, 36.873165)"><g><path d="M 2.75 -12.484375 C 2.3125 -12.484375 1.890625 -12.550781 1.484375 -12.6875 C 1.085938 -12.832031 0.765625 -13.046875 0.515625 -13.328125 C 0.265625 -13.617188 0.140625 -13.972656 0.140625 -14.390625 C 0.140625 -14.816406 0.265625 -15.171875 0.515625 -15.453125 C 0.765625 -15.734375 1.085938 -15.945312 1.484375 -16.09375 C 1.890625 -16.238281 2.3125 -16.3125 2.75 -16.3125 C 3.164062 -16.3125 3.570312 -16.238281 3.96875 -16.09375 C 4.375 -15.945312 4.703125 -15.734375 4.953125 -15.453125 C 5.210938 -15.171875 5.34375 -14.816406 5.34375 -14.390625 C 5.34375 -13.972656 5.210938 -13.617188 4.953125 -13.328125 C 4.703125 -13.046875 4.375 -12.832031 3.96875 -12.6875 C 3.570312 -12.550781 3.164062 -12.484375 2.75 -12.484375 Z M 4.203125 0 L 1.609375 0 C 1.296875 0 1.140625 -0.15625 1.140625 -0.46875 L 1.140625 -10.65625 C 2.285156 -10.425781 3.160156 -9.925781 3.765625 -9.15625 C 4.378906 -8.382812 4.6875 -7.390625 4.6875 -6.171875 L 4.6875 -0.46875 C 4.6875 -0.15625 4.523438 0 4.203125 0 Z M 4.203125 0 "/></g></g></g><g fill="#7acb53" fill-opacity="1"><g transform="translate(93.137462, 36.873165)"><g><path d="M 7.15625 -3.71875 L 1.015625 -3.71875 C 0.703125 -3.71875 0.546875 -3.875 0.546875 -4.1875 L 0.546875 -6.28125 C 0.546875 -6.601562 0.703125 -6.765625 1.015625 -6.765625 L 7.15625 -6.765625 C 7.476562 -6.765625 7.640625 -6.601562 7.640625 -6.28125 L 7.640625 -4.1875 C 7.640625 -3.875 7.476562 -3.71875 7.15625 -3.71875 Z M 7.15625 -3.71875 "/></g></g></g><g fill="#7acb53" fill-opacity="1"><g transform="translate(101.315799, 36.873165)"><g><path d="M 1.859375 -3.21875 L 9.875 -3.21875 C 10.195312 -3.21875 10.359375 -3.0625 10.359375 -2.75 L 10.359375 -0.46875 C 10.359375 -0.15625 10.195312 0 9.875 0 L 1.75 0 C 1.4375 0 1.28125 -0.15625 1.28125 -0.46875 L 1.28125 -15.609375 C 1.28125 -15.921875 1.4375 -16.078125 1.75 -16.078125 L 4.34375 -16.078125 C 4.664062 -16.078125 4.828125 -15.921875 4.828125 -15.609375 L 4.828125 -8.625 C 4.828125 -7.65625 4.695312 -6.816406 4.4375 -6.109375 C 4.1875 -5.398438 3.835938 -4.804688 3.390625 -4.328125 C 2.953125 -3.859375 2.441406 -3.488281 1.859375 -3.21875 Z M 1.859375 -3.21875 "/></g></g></g><g fill="#7acb53" fill-opacity="1"><g transform="translate(111.786903, 36.873165)"><g><path d="M 2.75 -12.484375 C 2.3125 -12.484375 1.890625 -12.550781 1.484375 -12.6875 C 1.085938 -12.832031 0.765625 -13.046875 0.515625 -13.328125 C 0.265625 -13.617188 0.140625 -13.972656 0.140625 -14.390625 C 0.140625 -14.816406 0.265625 -15.171875 0.515625 -15.453125 C 0.765625 -15.734375 1.085938 -15.945312 1.484375 -16.09375 C 1.890625 -16.238281 2.3125 -16.3125 2.75 -16.3125 C 3.164062 -16.3125 3.570312 -16.238281 3.96875 -16.09375 C 4.375 -15.945312 4.703125 -15.734375 4.953125 -15.453125 C 5.210938 -15.171875 5.34375 -14.816406 5.34375 -14.390625 C 5.34375 -13.972656 5.210938 -13.617188 4.953125 -13.328125 C 4.703125 -13.046875 4.375 -12.832031 3.96875 -12.6875 C 3.570312 -12.550781 3.164062 -12.484375 2.75 -12.484375 Z M 4.203125 0 L 1.609375 0 C 1.296875 0 1.140625 -0.15625 1.140625 -0.46875 L 1.140625 -10.65625 C 2.285156 -10.425781 3.160156 -9.925781 3.765625 -9.15625 C 4.378906 -8.382812 4.6875 -7.390625 4.6875 -6.171875 L 4.6875 -0.46875 C 4.6875 -0.15625 4.523438 0 4.203125 0 Z M 4.203125 0 "/></g></g></g><g fill="#7acb53" fill-opacity="1"><g transform="translate(117.459737, 36.873165)"><g><path d="M 7.84375 -10.796875 C 8.78125 -10.796875 9.535156 -10.597656 10.109375 -10.203125 C 10.679688 -9.804688 11.097656 -9.25 11.359375 -8.53125 C 11.628906 -7.820312 11.765625 -6.992188 11.765625 -6.046875 L 11.765625 -0.46875 C 11.765625 -0.15625 11.609375 0 11.296875 0 L 8.703125 0 C 8.390625 0 8.234375 -0.15625 8.234375 -0.46875 L 8.234375 -6.046875 C 8.234375 -6.660156 8.109375 -7.132812 7.859375 -7.46875 C 7.609375 -7.800781 7.203125 -7.96875 6.640625 -7.96875 C 6.140625 -7.96875 5.703125 -7.78125 5.328125 -7.40625 C 4.960938 -7.039062 4.75 -6.53125 4.6875 -5.875 L 4.6875 -0.46875 C 4.6875 -0.15625 4.523438 0 4.203125 0 L 1.609375 0 C 1.296875 0 1.140625 -0.15625 1.140625 -0.46875 L 1.140625 -10.65625 C 1.835938 -10.519531 2.4375 -10.273438 2.9375 -9.921875 C 3.4375 -9.578125 3.832031 -9.140625 4.125 -8.609375 C 4.65625 -9.410156 5.238281 -9.972656 5.875 -10.296875 C 6.507812 -10.628906 7.164062 -10.796875 7.84375 -10.796875 Z M 7.84375 -10.796875 "/></g></g></g><g fill="#7acb53" fill-opacity="1"><g transform="translate(130.223615, 36.873165)"><g><path d="M 8.0625 -5.46875 L 12.578125 -0.59375 C 12.722656 -0.4375 12.765625 -0.296875 12.703125 -0.171875 C 12.648438 -0.0546875 12.519531 0 12.3125 0 L 8.703125 0 C 8.460938 0 8.269531 -0.09375 8.125 -0.28125 L 4.6875 -4.640625 L 4.6875 -0.46875 C 4.6875 -0.15625 4.523438 0 4.203125 0 L 1.609375 0 C 1.296875 0 1.140625 -0.15625 1.140625 -0.46875 L 1.140625 -17.734375 C 2.285156 -17.492188 3.160156 -16.988281 3.765625 -16.21875 C 4.378906 -15.457031 4.6875 -14.460938 4.6875 -13.234375 L 4.6875 -6.234375 L 8.015625 -10.171875 C 8.160156 -10.335938 8.359375 -10.421875 8.609375 -10.421875 L 12.078125 -10.421875 C 12.285156 -10.421875 12.410156 -10.363281 12.453125 -10.25 C 12.503906 -10.132812 12.457031 -9.992188 12.3125 -9.828125 Z M 8.0625 -5.46875 "/></g></g></g><g fill="#7acb53" fill-opacity="1"><g transform="translate(44.974033, 48.559119)"><g><path d="M 2.203125 0.046875 C 1.921875 0.046875 1.65625 0 1.40625 -0.09375 C 1.15625 -0.195312 0.9375 -0.335938 0.75 -0.515625 C 0.5625 -0.691406 0.410156 -0.90625 0.296875 -1.15625 C 0.191406 -1.414062 0.140625 -1.703125 0.140625 -2.015625 C 0.140625 -2.273438 0.175781 -2.507812 0.25 -2.71875 C 0.320312 -2.9375 0.421875 -3.128906 0.546875 -3.296875 C 0.679688 -3.460938 0.832031 -3.601562 1 -3.71875 C 1.175781 -3.832031 1.363281 -3.921875 1.5625 -3.984375 C 1.769531 -4.046875 1.988281 -4.078125 2.21875 -4.078125 C 2.4375 -4.078125 2.644531 -4.046875 2.84375 -3.984375 C 3.039062 -3.929688 3.21875 -3.847656 3.375 -3.734375 C 3.539062 -3.628906 3.679688 -3.492188 3.796875 -3.328125 C 3.921875 -3.171875 4.007812 -2.992188 4.0625 -2.796875 C 4.070312 -2.753906 4.066406 -2.722656 4.046875 -2.703125 C 4.023438 -2.679688 3.992188 -2.671875 3.953125 -2.671875 L 3.265625 -2.671875 C 3.203125 -2.671875 3.15625 -2.703125 3.125 -2.765625 C 3.070312 -2.867188 3 -2.957031 2.90625 -3.03125 C 2.820312 -3.113281 2.71875 -3.175781 2.59375 -3.21875 C 2.476562 -3.257812 2.347656 -3.28125 2.203125 -3.28125 C 2.046875 -3.28125 1.894531 -3.25 1.75 -3.1875 C 1.601562 -3.132812 1.476562 -3.050781 1.375 -2.9375 C 1.269531 -2.832031 1.1875 -2.703125 1.125 -2.546875 C 1.0625 -2.390625 1.03125 -2.210938 1.03125 -2.015625 C 1.03125 -1.816406 1.0625 -1.640625 1.125 -1.484375 C 1.1875 -1.328125 1.269531 -1.191406 1.375 -1.078125 C 1.476562 -0.972656 1.601562 -0.890625 1.75 -0.828125 C 1.894531 -0.773438 2.046875 -0.75 2.203125 -0.75 C 2.347656 -0.75 2.476562 -0.769531 2.59375 -0.8125 C 2.71875 -0.851562 2.828125 -0.910156 2.921875 -0.984375 C 3.015625 -1.066406 3.082031 -1.164062 3.125 -1.28125 C 3.15625 -1.34375 3.203125 -1.375 3.265625 -1.375 L 3.96875 -1.375 C 4.007812 -1.375 4.039062 -1.359375 4.0625 -1.328125 C 4.082031 -1.304688 4.082031 -1.273438 4.0625 -1.234375 C 4.007812 -1.035156 3.921875 -0.851562 3.796875 -0.6875 C 3.679688 -0.53125 3.539062 -0.394531 3.375 -0.28125 C 3.21875 -0.175781 3.035156 -0.09375 2.828125 -0.03125 C 2.628906 0.0195312 2.421875 0.046875 2.203125 0.046875 Z M 2.203125 0.046875 "/></g></g></g><g fill="#7acb53" fill-opacity="1"><g transform="translate(49.522242, 48.559119)"><g><path d="M 1.65625 0.09375 C 1.425781 0.09375 1.21875 0.0625 1.03125 0 C 0.84375 -0.0703125 0.679688 -0.171875 0.546875 -0.296875 C 0.421875 -0.421875 0.328125 -0.566406 0.265625 -0.734375 C 0.203125 -0.910156 0.171875 -1.097656 0.171875 -1.296875 C 0.171875 -1.503906 0.203125 -1.691406 0.265625 -1.859375 C 0.335938 -2.035156 0.4375 -2.1875 0.5625 -2.3125 C 0.6875 -2.4375 0.84375 -2.53125 1.03125 -2.59375 C 1.21875 -2.664062 1.425781 -2.703125 1.65625 -2.703125 C 1.882812 -2.703125 2.085938 -2.664062 2.265625 -2.59375 C 2.453125 -2.53125 2.609375 -2.4375 2.734375 -2.3125 C 2.867188 -2.1875 2.96875 -2.035156 3.03125 -1.859375 C 3.101562 -1.691406 3.140625 -1.503906 3.140625 -1.296875 C 3.140625 -1.023438 3.078125 -0.785156 2.953125 -0.578125 C 2.835938 -0.367188 2.671875 -0.203125 2.453125 -0.078125 C 2.234375 0.0351562 1.96875 0.09375 1.65625 0.09375 Z M 1.65625 -0.59375 C 1.78125 -0.59375 1.890625 -0.625 1.984375 -0.6875 C 2.078125 -0.75 2.144531 -0.832031 2.1875 -0.9375 C 2.226562 -1.039062 2.25 -1.160156 2.25 -1.296875 C 2.25 -1.429688 2.226562 -1.550781 2.1875 -1.65625 C 2.144531 -1.757812 2.078125 -1.84375 1.984375 -1.90625 C 1.890625 -1.976562 1.78125 -2.015625 1.65625 -2.015625 C 1.519531 -2.015625 1.40625 -1.976562 1.3125 -1.90625 C 1.226562 -1.84375 1.160156 -1.753906 1.109375 -1.640625 C 1.066406 -1.535156 1.046875 -1.421875 1.046875 -1.296875 C 1.046875 -1.160156 1.066406 -1.039062 1.109375 -0.9375 C 1.160156 -0.832031 1.226562 -0.75 1.3125 -0.6875 C 1.40625 -0.625 1.519531 -0.59375 1.65625 -0.59375 Z M 1.65625 -0.59375 "/></g></g></g><g fill="#7acb53" fill-opacity="1"><g transform="translate(53.166761, 48.559119)"><g><path d="M 1.953125 -2.703125 C 2.191406 -2.703125 2.378906 -2.648438 2.515625 -2.546875 C 2.660156 -2.453125 2.765625 -2.3125 2.828125 -2.125 C 2.898438 -1.945312 2.9375 -1.742188 2.9375 -1.515625 L 2.9375 -0.125 C 2.9375 -0.0390625 2.898438 0 2.828125 0 L 2.171875 0 C 2.097656 0 2.0625 -0.0390625 2.0625 -0.125 L 2.0625 -1.515625 C 2.0625 -1.671875 2.03125 -1.785156 1.96875 -1.859375 C 1.90625 -1.941406 1.800781 -1.984375 1.65625 -1.984375 C 1.53125 -1.984375 1.421875 -1.9375 1.328125 -1.84375 C 1.242188 -1.757812 1.191406 -1.632812 1.171875 -1.46875 L 1.171875 -0.125 C 1.171875 -0.0390625 1.128906 0 1.046875 0 L 0.40625 0 C 0.320312 0 0.28125 -0.0390625 0.28125 -0.125 L 0.28125 -2.65625 C 0.457031 -2.625 0.609375 -2.5625 0.734375 -2.46875 C 0.859375 -2.382812 0.957031 -2.28125 1.03125 -2.15625 C 1.164062 -2.351562 1.3125 -2.492188 1.46875 -2.578125 C 1.625 -2.660156 1.785156 -2.703125 1.953125 -2.703125 Z M 1.953125 -2.703125 "/></g></g></g><g fill="#7acb53" fill-opacity="1"><g transform="translate(56.693149, 48.559119)"><g><path d="M 1.953125 -2.703125 C 2.191406 -2.703125 2.378906 -2.648438 2.515625 -2.546875 C 2.660156 -2.453125 2.765625 -2.3125 2.828125 -2.125 C 2.898438 -1.945312 2.9375 -1.742188 2.9375 -1.515625 L 2.9375 -0.125 C 2.9375 -0.0390625 2.898438 0 2.828125 0 L 2.171875 0 C 2.097656 0 2.0625 -0.0390625 2.0625 -0.125 L 2.0625 -1.515625 C 2.0625 -1.671875 2.03125 -1.785156 1.96875 -1.859375 C 1.90625 -1.941406 1.800781 -1.984375 1.65625 -1.984375 C 1.53125 -1.984375 1.421875 -1.9375 1.328125 -1.84375 C 1.242188 -1.757812 1.191406 -1.632812 1.171875 -1.46875 L 1.171875 -0.125 C 1.171875 -0.0390625 1.128906 0 1.046875 0 L 0.40625 0 C 0.320312 0 0.28125 -0.0390625 0.28125 -0.125 L 0.28125 -2.65625 C 0.457031 -2.625 0.609375 -2.5625 0.734375 -2.46875 C 0.859375 -2.382812 0.957031 -2.28125 1.03125 -2.15625 C 1.164062 -2.351562 1.3125 -2.492188 1.46875 -2.578125 C 1.625 -2.660156 1.785156 -2.703125 1.953125 -2.703125 Z M 1.953125 -2.703125 "/></g></g></g><g fill="#7acb53" fill-opacity="1"><g transform="translate(60.219538, 48.559119)"><g><path d="M 1.671875 -2.703125 C 1.867188 -2.703125 2.054688 -2.671875 2.234375 -2.609375 C 2.410156 -2.546875 2.5625 -2.457031 2.6875 -2.34375 C 2.820312 -2.238281 2.925781 -2.101562 3 -1.9375 C 3.082031 -1.769531 3.125 -1.578125 3.125 -1.359375 L 3.125 -1.25 C 3.125 -1.175781 3.082031 -1.140625 3 -1.140625 L 1.09375 -1.140625 C 1.101562 -0.953125 1.15625 -0.800781 1.25 -0.6875 C 1.351562 -0.582031 1.488281 -0.53125 1.65625 -0.53125 C 1.789062 -0.53125 1.898438 -0.554688 1.984375 -0.609375 C 2.066406 -0.671875 2.125 -0.738281 2.15625 -0.8125 C 2.175781 -0.84375 2.195312 -0.867188 2.21875 -0.890625 C 2.238281 -0.910156 2.265625 -0.921875 2.296875 -0.921875 L 2.953125 -0.921875 C 2.992188 -0.921875 3.023438 -0.90625 3.046875 -0.875 C 3.066406 -0.851562 3.066406 -0.820312 3.046875 -0.78125 C 2.972656 -0.582031 2.867188 -0.414062 2.734375 -0.28125 C 2.609375 -0.15625 2.453125 -0.0625 2.265625 0 C 2.085938 0.0625 1.890625 0.09375 1.671875 0.09375 C 1.453125 0.09375 1.25 0.0625 1.0625 0 C 0.875 -0.0625 0.710938 -0.148438 0.578125 -0.265625 C 0.441406 -0.390625 0.335938 -0.539062 0.265625 -0.71875 C 0.191406 -0.894531 0.15625 -1.085938 0.15625 -1.296875 C 0.15625 -1.515625 0.191406 -1.707031 0.265625 -1.875 C 0.347656 -2.050781 0.457031 -2.195312 0.59375 -2.3125 C 0.726562 -2.4375 0.882812 -2.53125 1.0625 -2.59375 C 1.25 -2.664062 1.453125 -2.703125 1.671875 -2.703125 Z M 1.109375 -1.609375 L 2.171875 -1.609375 C 2.171875 -1.753906 2.125 -1.867188 2.03125 -1.953125 C 1.9375 -2.046875 1.804688 -2.09375 1.640625 -2.09375 C 1.484375 -2.09375 1.363281 -2.046875 1.28125 -1.953125 C 1.195312 -1.867188 1.140625 -1.753906 1.109375 -1.609375 Z M 1.109375 -1.609375 "/></g></g></g><g fill="#7acb53" fill-opacity="1"><g transform="translate(63.846336, 48.559119)"><g><path d="M 1.546875 0.09375 C 1.335938 0.09375 1.144531 0.0546875 0.96875 -0.015625 C 0.800781 -0.0859375 0.65625 -0.1875 0.53125 -0.3125 C 0.414062 -0.4375 0.328125 -0.582031 0.265625 -0.75 C 0.203125 -0.925781 0.171875 -1.113281 0.171875 -1.3125 C 0.171875 -1.5 0.203125 -1.675781 0.265625 -1.84375 C 0.328125 -2.007812 0.414062 -2.15625 0.53125 -2.28125 C 0.65625 -2.414062 0.800781 -2.519531 0.96875 -2.59375 C 1.144531 -2.664062 1.335938 -2.703125 1.546875 -2.703125 C 1.816406 -2.703125 2.050781 -2.65625 2.25 -2.5625 C 2.445312 -2.476562 2.609375 -2.359375 2.734375 -2.203125 C 2.859375 -2.046875 2.9375 -1.875 2.96875 -1.6875 C 2.96875 -1.644531 2.957031 -1.613281 2.9375 -1.59375 C 2.914062 -1.570312 2.890625 -1.5625 2.859375 -1.5625 L 2.203125 -1.5625 C 2.140625 -1.5625 2.097656 -1.597656 2.078125 -1.671875 C 2.054688 -1.773438 2.003906 -1.859375 1.921875 -1.921875 C 1.847656 -1.984375 1.75 -2.015625 1.625 -2.015625 C 1.519531 -2.015625 1.429688 -1.992188 1.359375 -1.953125 C 1.285156 -1.910156 1.222656 -1.851562 1.171875 -1.78125 C 1.128906 -1.71875 1.097656 -1.644531 1.078125 -1.5625 C 1.054688 -1.476562 1.046875 -1.394531 1.046875 -1.3125 C 1.046875 -1.175781 1.066406 -1.050781 1.109375 -0.9375 C 1.148438 -0.832031 1.210938 -0.75 1.296875 -0.6875 C 1.378906 -0.625 1.488281 -0.59375 1.625 -0.59375 C 1.75 -0.59375 1.847656 -0.617188 1.921875 -0.671875 C 2.003906 -0.734375 2.054688 -0.820312 2.078125 -0.9375 C 2.097656 -1.007812 2.140625 -1.046875 2.203125 -1.046875 L 2.859375 -1.046875 C 2.890625 -1.046875 2.914062 -1.035156 2.9375 -1.015625 C 2.957031 -1.003906 2.96875 -0.984375 2.96875 -0.953125 C 2.9375 -0.753906 2.859375 -0.578125 2.734375 -0.421875 C 2.617188 -0.265625 2.457031 -0.140625 2.25 -0.046875 C 2.050781 0.046875 1.816406 0.09375 1.546875 0.09375 Z M 1.546875 0.09375 "/></g></g></g><g fill="#7acb53" fill-opacity="1"><g transform="translate(67.319562, 48.559119)"><g><path d="M 1.453125 -2.609375 L 1.84375 -2.609375 C 1.914062 -2.609375 1.953125 -2.566406 1.953125 -2.484375 L 1.953125 -2.03125 C 1.953125 -1.957031 1.914062 -1.921875 1.84375 -1.921875 L 1.453125 -1.921875 L 1.453125 -0.125 C 1.453125 -0.0390625 1.410156 0 1.328125 0 L 0.6875 0 C 0.601562 0 0.5625 -0.0390625 0.5625 -0.125 L 0.5625 -1.921875 L 0.1875 -1.921875 C 0.113281 -1.921875 0.078125 -1.957031 0.078125 -2.03125 L 0.078125 -2.484375 C 0.078125 -2.566406 0.113281 -2.609375 0.1875 -2.609375 L 0.5625 -2.609375 C 0.5625 -2.910156 0.640625 -3.15625 0.796875 -3.34375 C 0.953125 -3.539062 1.171875 -3.671875 1.453125 -3.734375 Z M 1.453125 -2.609375 "/></g></g></g><g fill="#7acb53" fill-opacity="1"><g transform="translate(69.68237, 48.559119)"><g><path d="M 0.6875 -3.125 C 0.570312 -3.125 0.460938 -3.140625 0.359375 -3.171875 C 0.265625 -3.203125 0.1875 -3.253906 0.125 -3.328125 C 0.0625 -3.398438 0.03125 -3.488281 0.03125 -3.59375 C 0.03125 -3.695312 0.0625 -3.785156 0.125 -3.859375 C 0.1875 -3.929688 0.265625 -3.984375 0.359375 -4.015625 C 0.460938 -4.054688 0.570312 -4.078125 0.6875 -4.078125 C 0.789062 -4.078125 0.890625 -4.054688 0.984375 -4.015625 C 1.085938 -3.984375 1.171875 -3.929688 1.234375 -3.859375 C 1.296875 -3.785156 1.328125 -3.695312 1.328125 -3.59375 C 1.328125 -3.488281 1.296875 -3.398438 1.234375 -3.328125 C 1.171875 -3.253906 1.085938 -3.203125 0.984375 -3.171875 C 0.890625 -3.140625 0.789062 -3.125 0.6875 -3.125 Z M 1.046875 0 L 0.40625 0 C 0.320312 0 0.28125 -0.0390625 0.28125 -0.125 L 0.28125 -2.65625 C 0.570312 -2.601562 0.789062 -2.476562 0.9375 -2.28125 C 1.09375 -2.09375 1.171875 -1.847656 1.171875 -1.546875 L 1.171875 -0.125 C 1.171875 -0.0390625 1.128906 0 1.046875 0 Z M 1.046875 0 "/></g></g></g><g fill="#7acb53" fill-opacity="1"><g transform="translate(71.436811, 48.559119)"><g><path d="M 1.953125 -2.703125 C 2.191406 -2.703125 2.378906 -2.648438 2.515625 -2.546875 C 2.660156 -2.453125 2.765625 -2.3125 2.828125 -2.125 C 2.898438 -1.945312 2.9375 -1.742188 2.9375 -1.515625 L 2.9375 -0.125 C 2.9375 -0.0390625 2.898438 0 2.828125 0 L 2.171875 0 C 2.097656 0 2.0625 -0.0390625 2.0625 -0.125 L 2.0625 -1.515625 C 2.0625 -1.671875 2.03125 -1.785156 1.96875 -1.859375 C 1.90625 -1.941406 1.800781 -1.984375 1.65625 -1.984375 C 1.53125 -1.984375 1.421875 -1.9375 1.328125 -1.84375 C 1.242188 -1.757812 1.191406 -1.632812 1.171875 -1.46875 L 1.171875 -0.125 C 1.171875 -0.0390625 1.128906 0 1.046875 0 L 0.40625 0 C 0.320312 0 0.28125 -0.0390625 0.28125 -0.125 L 0.28125 -2.65625 C 0.457031 -2.625 0.609375 -2.5625 0.734375 -2.46875 C 0.859375 -2.382812 0.957031 -2.28125 1.03125 -2.15625 C 1.164062 -2.351562 1.3125 -2.492188 1.46875 -2.578125 C 1.625 -2.660156 1.785156 -2.703125 1.953125 -2.703125 Z M 1.953125 -2.703125 "/></g></g></g><g fill="#7acb53" fill-opacity="1"><g transform="translate(74.9632, 48.559119)"><g><path d="M 2.484375 -2.21875 C 2.628906 -2.507812 2.882812 -2.65625 3.25 -2.65625 L 3.25 0.234375 C 3.25 0.515625 3.179688 0.742188 3.046875 0.921875 C 2.921875 1.109375 2.742188 1.242188 2.515625 1.328125 C 2.296875 1.421875 2.039062 1.46875 1.75 1.46875 C 1.5625 1.46875 1.378906 1.453125 1.203125 1.421875 C 1.035156 1.390625 0.882812 1.332031 0.75 1.25 C 0.613281 1.164062 0.5 1.054688 0.40625 0.921875 C 0.3125 0.796875 0.253906 0.640625 0.234375 0.453125 C 0.222656 0.410156 0.226562 0.378906 0.25 0.359375 C 0.269531 0.335938 0.300781 0.328125 0.34375 0.328125 L 1 0.328125 C 1.0625 0.328125 1.101562 0.363281 1.125 0.4375 C 1.15625 0.5625 1.222656 0.65625 1.328125 0.71875 C 1.429688 0.789062 1.570312 0.828125 1.75 0.828125 C 1.945312 0.828125 2.097656 0.773438 2.203125 0.671875 C 2.304688 0.578125 2.359375 0.425781 2.359375 0.21875 L 2.359375 -0.25 C 2.242188 -0.132812 2.113281 -0.0507812 1.96875 0 C 1.820312 0.0625 1.65625 0.09375 1.46875 0.09375 C 1.28125 0.09375 1.101562 0.0625 0.9375 0 C 0.78125 -0.0703125 0.644531 -0.171875 0.53125 -0.296875 C 0.414062 -0.421875 0.328125 -0.566406 0.265625 -0.734375 C 0.203125 -0.910156 0.171875 -1.101562 0.171875 -1.3125 C 0.171875 -1.507812 0.203125 -1.691406 0.265625 -1.859375 C 0.328125 -2.035156 0.414062 -2.1875 0.53125 -2.3125 C 0.644531 -2.4375 0.78125 -2.53125 0.9375 -2.59375 C 1.101562 -2.664062 1.28125 -2.703125 1.46875 -2.703125 C 1.6875 -2.703125 1.878906 -2.65625 2.046875 -2.5625 C 2.222656 -2.476562 2.367188 -2.363281 2.484375 -2.21875 Z M 1.75 -0.609375 C 1.863281 -0.609375 1.96875 -0.632812 2.0625 -0.6875 C 2.15625 -0.75 2.226562 -0.832031 2.28125 -0.9375 C 2.332031 -1.039062 2.359375 -1.160156 2.359375 -1.296875 C 2.359375 -1.429688 2.332031 -1.550781 2.28125 -1.65625 C 2.226562 -1.757812 2.15625 -1.835938 2.0625 -1.890625 C 1.96875 -1.953125 1.863281 -1.984375 1.75 -1.984375 C 1.625 -1.984375 1.515625 -1.953125 1.421875 -1.890625 C 1.328125 -1.835938 1.253906 -1.757812 1.203125 -1.65625 C 1.148438 -1.550781 1.125 -1.429688 1.125 -1.296875 C 1.125 -1.160156 1.148438 -1.039062 1.203125 -0.9375 C 1.253906 -0.832031 1.328125 -0.75 1.421875 -0.6875 C 1.515625 -0.632812 1.625 -0.609375 1.75 -0.609375 Z M 1.75 -0.609375 "/></g></g></g><g fill="#7acb53" fill-opacity="1"><g transform="translate(78.838073, 48.559119)"><g/></g></g><g fill="#7acb53" fill-opacity="1"><g transform="translate(80.710639, 48.559119)"><g><path d="M 1.109375 -4.015625 L 1.65625 -4.015625 C 2 -4.015625 2.273438 -3.957031 2.484375 -3.84375 C 2.703125 -3.738281 2.859375 -3.585938 2.953125 -3.390625 C 3.046875 -3.203125 3.09375 -2.984375 3.09375 -2.734375 C 3.09375 -2.460938 3.046875 -2.226562 2.953125 -2.03125 C 2.859375 -1.84375 2.703125 -1.695312 2.484375 -1.59375 C 2.273438 -1.488281 2 -1.4375 1.65625 -1.4375 L 1.203125 -1.4375 L 1.203125 -1.109375 C 1.203125 -0.867188 1.164062 -0.660156 1.09375 -0.484375 C 1.019531 -0.304688 0.914062 -0.164062 0.78125 -0.0625 C 0.644531 0.0390625 0.488281 0.101562 0.3125 0.125 L 0.3125 -3.890625 C 0.3125 -3.972656 0.351562 -4.015625 0.4375 -4.015625 L 1.09375 -4.015625 C 1.101562 -4.015625 1.109375 -4.015625 1.109375 -4.015625 Z M 1.203125 -2.1875 L 1.5625 -2.1875 C 1.601562 -2.1875 1.648438 -2.1875 1.703125 -2.1875 C 1.753906 -2.195312 1.804688 -2.207031 1.859375 -2.21875 C 1.921875 -2.238281 1.976562 -2.265625 2.03125 -2.296875 C 2.09375 -2.335938 2.140625 -2.390625 2.171875 -2.453125 C 2.203125 -2.523438 2.21875 -2.617188 2.21875 -2.734375 C 2.21875 -2.835938 2.203125 -2.921875 2.171875 -2.984375 C 2.140625 -3.046875 2.097656 -3.09375 2.046875 -3.125 C 1.992188 -3.164062 1.9375 -3.191406 1.875 -3.203125 C 1.8125 -3.222656 1.753906 -3.234375 1.703125 -3.234375 C 1.648438 -3.242188 1.601562 -3.25 1.5625 -3.25 L 1.203125 -3.25 Z M 1.203125 -2.1875 "/></g></g></g><g fill="#7acb53" fill-opacity="1"><g transform="translate(84.130683, 48.559119)"><g><path d="M 2.515625 -2.1875 C 2.660156 -2.46875 2.90625 -2.625 3.25 -2.65625 L 3.25 0.0625 C 2.90625 0.0195312 2.660156 -0.140625 2.515625 -0.421875 C 2.398438 -0.265625 2.25 -0.140625 2.0625 -0.046875 C 1.882812 0.046875 1.6875 0.09375 1.46875 0.09375 C 1.28125 0.09375 1.101562 0.0625 0.9375 0 C 0.78125 -0.0703125 0.644531 -0.171875 0.53125 -0.296875 C 0.414062 -0.421875 0.328125 -0.566406 0.265625 -0.734375 C 0.203125 -0.910156 0.171875 -1.101562 0.171875 -1.3125 C 0.171875 -1.507812 0.203125 -1.691406 0.265625 -1.859375 C 0.328125 -2.035156 0.414062 -2.1875 0.53125 -2.3125 C 0.644531 -2.4375 0.78125 -2.53125 0.9375 -2.59375 C 1.101562 -2.664062 1.28125 -2.703125 1.46875 -2.703125 C 1.6875 -2.703125 1.882812 -2.65625 2.0625 -2.5625 C 2.25 -2.46875 2.398438 -2.34375 2.515625 -2.1875 Z M 1.75 -0.609375 C 1.863281 -0.609375 1.96875 -0.632812 2.0625 -0.6875 C 2.15625 -0.75 2.226562 -0.832031 2.28125 -0.9375 C 2.332031 -1.039062 2.359375 -1.160156 2.359375 -1.296875 C 2.359375 -1.429688 2.332031 -1.550781 2.28125 -1.65625 C 2.226562 -1.757812 2.15625 -1.835938 2.0625 -1.890625 C 1.96875 -1.953125 1.863281 -1.984375 1.75 -1.984375 C 1.625 -1.984375 1.515625 -1.953125 1.421875 -1.890625 C 1.328125 -1.835938 1.253906 -1.757812 1.203125 -1.65625 C 1.148438 -1.550781 1.125 -1.429688 1.125 -1.296875 C 1.125 -1.160156 1.148438 -1.039062 1.203125 -0.9375 C 1.253906 -0.832031 1.328125 -0.75 1.421875 -0.6875 C 1.515625 -0.632812 1.625 -0.609375 1.75 -0.609375 Z M 1.75 -0.609375 "/></g></g></g><g fill="#7acb53" fill-opacity="1"><g transform="translate(88.005556, 48.559119)"><g><path d="M 1.453125 -2.609375 L 1.84375 -2.609375 C 1.914062 -2.609375 1.953125 -2.566406 1.953125 -2.484375 L 1.953125 -2.03125 C 1.953125 -1.957031 1.914062 -1.921875 1.84375 -1.921875 L 1.453125 -1.921875 L 1.453125 -0.125 C 1.453125 -0.0390625 1.410156 0 1.328125 0 L 0.6875 0 C 0.601562 0 0.5625 -0.0390625 0.5625 -0.125 L 0.5625 -1.921875 L 0.1875 -1.921875 C 0.113281 -1.921875 0.078125 -1.957031 0.078125 -2.03125 L 0.078125 -2.484375 C 0.078125 -2.566406 0.113281 -2.609375 0.1875 -2.609375 L 0.5625 -2.609375 C 0.5625 -2.910156 0.640625 -3.15625 0.796875 -3.34375 C 0.953125 -3.539062 1.171875 -3.671875 1.453125 -3.734375 Z M 1.453125 -2.609375 "/></g></g></g><g fill="#7acb53" fill-opacity="1"><g transform="translate(90.368362, 48.559119)"><g><path d="M 0.6875 -3.125 C 0.570312 -3.125 0.460938 -3.140625 0.359375 -3.171875 C 0.265625 -3.203125 0.1875 -3.253906 0.125 -3.328125 C 0.0625 -3.398438 0.03125 -3.488281 0.03125 -3.59375 C 0.03125 -3.695312 0.0625 -3.785156 0.125 -3.859375 C 0.1875 -3.929688 0.265625 -3.984375 0.359375 -4.015625 C 0.460938 -4.054688 0.570312 -4.078125 0.6875 -4.078125 C 0.789062 -4.078125 0.890625 -4.054688 0.984375 -4.015625 C 1.085938 -3.984375 1.171875 -3.929688 1.234375 -3.859375 C 1.296875 -3.785156 1.328125 -3.695312 1.328125 -3.59375 C 1.328125 -3.488281 1.296875 -3.398438 1.234375 -3.328125 C 1.171875 -3.253906 1.085938 -3.203125 0.984375 -3.171875 C 0.890625 -3.140625 0.789062 -3.125 0.6875 -3.125 Z M 1.046875 0 L 0.40625 0 C 0.320312 0 0.28125 -0.0390625 0.28125 -0.125 L 0.28125 -2.65625 C 0.570312 -2.601562 0.789062 -2.476562 0.9375 -2.28125 C 1.09375 -2.09375 1.171875 -1.847656 1.171875 -1.546875 L 1.171875 -0.125 C 1.171875 -0.0390625 1.128906 0 1.046875 0 Z M 1.046875 0 "/></g></g></g><g fill="#7acb53" fill-opacity="1"><g transform="translate(92.122801, 48.559119)"><g><path d="M 1.671875 -2.703125 C 1.867188 -2.703125 2.054688 -2.671875 2.234375 -2.609375 C 2.410156 -2.546875 2.5625 -2.457031 2.6875 -2.34375 C 2.820312 -2.238281 2.925781 -2.101562 3 -1.9375 C 3.082031 -1.769531 3.125 -1.578125 3.125 -1.359375 L 3.125 -1.25 C 3.125 -1.175781 3.082031 -1.140625 3 -1.140625 L 1.09375 -1.140625 C 1.101562 -0.953125 1.15625 -0.800781 1.25 -0.6875 C 1.351562 -0.582031 1.488281 -0.53125 1.65625 -0.53125 C 1.789062 -0.53125 1.898438 -0.554688 1.984375 -0.609375 C 2.066406 -0.671875 2.125 -0.738281 2.15625 -0.8125 C 2.175781 -0.84375 2.195312 -0.867188 2.21875 -0.890625 C 2.238281 -0.910156 2.265625 -0.921875 2.296875 -0.921875 L 2.953125 -0.921875 C 2.992188 -0.921875 3.023438 -0.90625 3.046875 -0.875 C 3.066406 -0.851562 3.066406 -0.820312 3.046875 -0.78125 C 2.972656 -0.582031 2.867188 -0.414062 2.734375 -0.28125 C 2.609375 -0.15625 2.453125 -0.0625 2.265625 0 C 2.085938 0.0625 1.890625 0.09375 1.671875 0.09375 C 1.453125 0.09375 1.25 0.0625 1.0625 0 C 0.875 -0.0625 0.710938 -0.148438 0.578125 -0.265625 C 0.441406 -0.390625 0.335938 -0.539062 0.265625 -0.71875 C 0.191406 -0.894531 0.15625 -1.085938 0.15625 -1.296875 C 0.15625 -1.515625 0.191406 -1.707031 0.265625 -1.875 C 0.347656 -2.050781 0.457031 -2.195312 0.59375 -2.3125 C 0.726562 -2.4375 0.882812 -2.53125 1.0625 -2.59375 C 1.25 -2.664062 1.453125 -2.703125 1.671875 -2.703125 Z M 1.109375 -1.609375 L 2.171875 -1.609375 C 2.171875 -1.753906 2.125 -1.867188 2.03125 -1.953125 C 1.9375 -2.046875 1.804688 -2.09375 1.640625 -2.09375 C 1.484375 -2.09375 1.363281 -2.046875 1.28125 -1.953125 C 1.195312 -1.867188 1.140625 -1.753906 1.109375 -1.609375 Z M 1.109375 -1.609375 "/></g></g></g><g fill="#7acb53" fill-opacity="1"><g transform="translate(95.749598, 48.559119)"><g><path d="M 1.953125 -2.703125 C 2.191406 -2.703125 2.378906 -2.648438 2.515625 -2.546875 C 2.660156 -2.453125 2.765625 -2.3125 2.828125 -2.125 C 2.898438 -1.945312 2.9375 -1.742188 2.9375 -1.515625 L 2.9375 -0.125 C 2.9375 -0.0390625 2.898438 0 2.828125 0 L 2.171875 0 C 2.097656 0 2.0625 -0.0390625 2.0625 -0.125 L 2.0625 -1.515625 C 2.0625 -1.671875 2.03125 -1.785156 1.96875 -1.859375 C 1.90625 -1.941406 1.800781 -1.984375 1.65625 -1.984375 C 1.53125 -1.984375 1.421875 -1.9375 1.328125 -1.84375 C 1.242188 -1.757812 1.191406 -1.632812 1.171875 -1.46875 L 1.171875 -0.125 C 1.171875 -0.0390625 1.128906 0 1.046875 0 L 0.40625 0 C 0.320312 0 0.28125 -0.0390625 0.28125 -0.125 L 0.28125 -2.65625 C 0.457031 -2.625 0.609375 -2.5625 0.734375 -2.46875 C 0.859375 -2.382812 0.957031 -2.28125 1.03125 -2.15625 C 1.164062 -2.351562 1.3125 -2.492188 1.46875 -2.578125 C 1.625 -2.660156 1.785156 -2.703125 1.953125 -2.703125 Z M 1.953125 -2.703125 "/></g></g></g><g fill="#7acb53" fill-opacity="1"><g transform="translate(99.275984, 48.559119)"><g><path d="M 1.453125 -2.609375 L 1.84375 -2.609375 C 1.914062 -2.609375 1.953125 -2.566406 1.953125 -2.484375 L 1.953125 -2.03125 C 1.953125 -1.957031 1.914062 -1.921875 1.84375 -1.921875 L 1.453125 -1.921875 L 1.453125 -0.125 C 1.453125 -0.0390625 1.410156 0 1.328125 0 L 0.6875 0 C 0.601562 0 0.5625 -0.0390625 0.5625 -0.125 L 0.5625 -1.921875 L 0.1875 -1.921875 C 0.113281 -1.921875 0.078125 -1.957031 0.078125 -2.03125 L 0.078125 -2.484375 C 0.078125 -2.566406 0.113281 -2.609375 0.1875 -2.609375 L 0.5625 -2.609375 C 0.5625 -2.910156 0.640625 -3.15625 0.796875 -3.34375 C 0.953125 -3.539062 1.171875 -3.671875 1.453125 -3.734375 Z M 1.453125 -2.609375 "/></g></g></g><g fill="#7acb53" fill-opacity="1"><g transform="translate(101.638791, 48.559119)"><g><path d="M 1.578125 0.09375 C 1.328125 0.09375 1.097656 0.0625 0.890625 0 C 0.691406 -0.0703125 0.523438 -0.175781 0.390625 -0.3125 C 0.265625 -0.445312 0.1875 -0.625 0.15625 -0.84375 C 0.144531 -0.882812 0.148438 -0.914062 0.171875 -0.9375 C 0.191406 -0.957031 0.222656 -0.96875 0.265625 -0.96875 L 0.90625 -0.96875 C 0.945312 -0.96875 0.972656 -0.957031 0.984375 -0.9375 C 1.003906 -0.914062 1.019531 -0.890625 1.03125 -0.859375 C 1.050781 -0.785156 1.082031 -0.726562 1.125 -0.6875 C 1.164062 -0.644531 1.210938 -0.609375 1.265625 -0.578125 C 1.328125 -0.554688 1.382812 -0.539062 1.4375 -0.53125 C 1.5 -0.519531 1.550781 -0.515625 1.59375 -0.515625 C 1.726562 -0.515625 1.828125 -0.539062 1.890625 -0.59375 C 1.960938 -0.644531 2 -0.707031 2 -0.78125 C 2 -0.832031 1.972656 -0.875 1.921875 -0.90625 C 1.867188 -0.945312 1.800781 -0.976562 1.71875 -1 C 1.632812 -1.019531 1.539062 -1.035156 1.4375 -1.046875 C 1.34375 -1.066406 1.238281 -1.085938 1.125 -1.109375 C 1.007812 -1.128906 0.898438 -1.15625 0.796875 -1.1875 C 0.703125 -1.21875 0.613281 -1.257812 0.53125 -1.3125 C 0.445312 -1.363281 0.378906 -1.429688 0.328125 -1.515625 C 0.273438 -1.609375 0.25 -1.722656 0.25 -1.859375 C 0.25 -2.023438 0.296875 -2.171875 0.390625 -2.296875 C 0.484375 -2.421875 0.625 -2.519531 0.8125 -2.59375 C 1 -2.664062 1.222656 -2.703125 1.484375 -2.703125 C 1.835938 -2.703125 2.125 -2.640625 2.34375 -2.515625 C 2.5625 -2.390625 2.703125 -2.195312 2.765625 -1.9375 C 2.773438 -1.894531 2.769531 -1.863281 2.75 -1.84375 C 2.726562 -1.820312 2.695312 -1.8125 2.65625 -1.8125 L 2.03125 -1.8125 C 1.96875 -1.8125 1.921875 -1.84375 1.890625 -1.90625 C 1.859375 -1.988281 1.804688 -2.050781 1.734375 -2.09375 C 1.671875 -2.132812 1.570312 -2.15625 1.4375 -2.15625 C 1.332031 -2.15625 1.253906 -2.132812 1.203125 -2.09375 C 1.160156 -2.0625 1.140625 -2.023438 1.140625 -1.984375 C 1.140625 -1.921875 1.164062 -1.875 1.21875 -1.84375 C 1.269531 -1.8125 1.335938 -1.785156 1.421875 -1.765625 C 1.503906 -1.742188 1.597656 -1.722656 1.703125 -1.703125 C 1.804688 -1.691406 1.910156 -1.675781 2.015625 -1.65625 C 2.128906 -1.632812 2.238281 -1.601562 2.34375 -1.5625 C 2.445312 -1.53125 2.535156 -1.484375 2.609375 -1.421875 C 2.691406 -1.359375 2.757812 -1.28125 2.8125 -1.1875 C 2.863281 -1.101562 2.890625 -0.992188 2.890625 -0.859375 C 2.890625 -0.660156 2.835938 -0.488281 2.734375 -0.34375 C 2.628906 -0.195312 2.476562 -0.0859375 2.28125 -0.015625 C 2.082031 0.0546875 1.847656 0.09375 1.578125 0.09375 Z M 1.578125 0.09375 "/></g></g></g><g fill="#7acb53" fill-opacity="1"><g transform="translate(105.029327, 48.559119)"><g/></g></g><g fill="#7acb53" fill-opacity="1"><g transform="translate(106.90189, 48.559119)"><g><path d="M 2.3125 -3.921875 L 3.734375 -0.140625 C 3.734375 -0.128906 3.734375 -0.117188 3.734375 -0.109375 C 3.742188 -0.0976562 3.75 -0.09375 3.75 -0.09375 C 3.75 -0.0625 3.738281 -0.0351562 3.71875 -0.015625 C 3.695312 -0.00390625 3.671875 0 3.640625 0 L 2.9375 0 C 2.90625 0 2.878906 -0.00390625 2.859375 -0.015625 C 2.835938 -0.0351562 2.820312 -0.0625 2.8125 -0.09375 L 2.578125 -0.8125 L 2.359375 -0.8125 C 2.117188 -0.8125 1.921875 -0.851562 1.765625 -0.9375 C 1.609375 -1.03125 1.5 -1.15625 1.4375 -1.3125 C 1.34375 -1 1.222656 -0.742188 1.078125 -0.546875 C 0.929688 -0.359375 0.765625 -0.207031 0.578125 -0.09375 C 0.390625 0.0078125 0.1875 0.0820312 -0.03125 0.125 L 1.484375 -3.921875 C 1.515625 -3.984375 1.5625 -4.015625 1.625 -4.015625 L 2.171875 -4.015625 C 2.234375 -4.015625 2.28125 -3.984375 2.3125 -3.921875 Z M 1.90625 -2.84375 L 1.5 -1.53125 L 2.328125 -1.53125 Z M 1.90625 -2.84375 "/></g></g></g><g fill="#7acb53" fill-opacity="1"><g transform="translate(111.007113, 48.559119)"><g><path d="M 1.953125 -2.703125 C 2.191406 -2.703125 2.378906 -2.648438 2.515625 -2.546875 C 2.660156 -2.453125 2.765625 -2.3125 2.828125 -2.125 C 2.898438 -1.945312 2.9375 -1.742188 2.9375 -1.515625 L 2.9375 -0.125 C 2.9375 -0.0390625 2.898438 0 2.828125 0 L 2.171875 0 C 2.097656 0 2.0625 -0.0390625 2.0625 -0.125 L 2.0625 -1.515625 C 2.0625 -1.671875 2.03125 -1.785156 1.96875 -1.859375 C 1.90625 -1.941406 1.800781 -1.984375 1.65625 -1.984375 C 1.53125 -1.984375 1.421875 -1.9375 1.328125 -1.84375 C 1.242188 -1.757812 1.191406 -1.632812 1.171875 -1.46875 L 1.171875 -0.125 C 1.171875 -0.0390625 1.128906 0 1.046875 0 L 0.40625 0 C 0.320312 0 0.28125 -0.0390625 0.28125 -0.125 L 0.28125 -2.65625 C 0.457031 -2.625 0.609375 -2.5625 0.734375 -2.46875 C 0.859375 -2.382812 0.957031 -2.28125 1.03125 -2.15625 C 1.164062 -2.351562 1.3125 -2.492188 1.46875 -2.578125 C 1.625 -2.660156 1.785156 -2.703125 1.953125 -2.703125 Z M 1.953125 -2.703125 "/></g></g></g><g fill="#7acb53" fill-opacity="1"><g transform="translate(114.533499, 48.559119)"><g><path d="M 2.359375 -2.359375 L 2.359375 -4.421875 C 2.648438 -4.367188 2.867188 -4.242188 3.015625 -4.046875 C 3.171875 -3.859375 3.25 -3.613281 3.25 -3.3125 L 3.25 0.0625 C 2.882812 0.0625 2.628906 -0.0859375 2.484375 -0.390625 C 2.367188 -0.234375 2.222656 -0.113281 2.046875 -0.03125 C 1.878906 0.0507812 1.6875 0.09375 1.46875 0.09375 C 1.28125 0.09375 1.101562 0.0625 0.9375 0 C 0.78125 -0.0703125 0.644531 -0.171875 0.53125 -0.296875 C 0.414062 -0.421875 0.328125 -0.566406 0.265625 -0.734375 C 0.203125 -0.910156 0.171875 -1.101562 0.171875 -1.3125 C 0.171875 -1.507812 0.203125 -1.691406 0.265625 -1.859375 C 0.328125 -2.035156 0.414062 -2.1875 0.53125 -2.3125 C 0.644531 -2.4375 0.78125 -2.53125 0.9375 -2.59375 C 1.101562 -2.664062 1.28125 -2.703125 1.46875 -2.703125 C 1.65625 -2.703125 1.820312 -2.671875 1.96875 -2.609375 C 2.113281 -2.546875 2.242188 -2.460938 2.359375 -2.359375 Z M 1.75 -0.609375 C 1.863281 -0.609375 1.96875 -0.632812 2.0625 -0.6875 C 2.15625 -0.75 2.226562 -0.832031 2.28125 -0.9375 C 2.332031 -1.039062 2.359375 -1.160156 2.359375 -1.296875 C 2.359375 -1.429688 2.332031 -1.550781 2.28125 -1.65625 C 2.226562 -1.757812 2.15625 -1.835938 2.0625 -1.890625 C 1.96875 -1.953125 1.863281 -1.984375 1.75 -1.984375 C 1.625 -1.984375 1.515625 -1.953125 1.421875 -1.890625 C 1.328125 -1.835938 1.253906 -1.757812 1.203125 -1.65625 C 1.148438 -1.550781 1.125 -1.429688 1.125 -1.296875 C 1.125 -1.160156 1.148438 -1.039062 1.203125 -0.9375 C 1.253906 -0.832031 1.328125 -0.75 1.421875 -0.6875 C 1.515625 -0.632812 1.625 -0.609375 1.75 -0.609375 Z M 1.75 -0.609375 "/></g></g></g><g fill="#7acb53" fill-opacity="1"><g transform="translate(118.408369, 48.559119)"><g/></g></g><g fill="#7acb53" fill-opacity="1"><g transform="translate(120.280933, 48.559119)"><g><path d="M 1.390625 0 L 0.4375 0 C 0.351562 0 0.3125 -0.0390625 0.3125 -0.125 L 0.3125 -3.890625 C 0.3125 -3.972656 0.351562 -4.015625 0.4375 -4.015625 L 1.390625 -4.015625 C 1.765625 -4.015625 2.085938 -3.960938 2.359375 -3.859375 C 2.628906 -3.765625 2.851562 -3.625 3.03125 -3.4375 C 3.21875 -3.25 3.351562 -3.035156 3.4375 -2.796875 C 3.519531 -2.554688 3.5625 -2.296875 3.5625 -2.015625 C 3.5625 -1.722656 3.519531 -1.457031 3.4375 -1.21875 C 3.351562 -0.976562 3.21875 -0.765625 3.03125 -0.578125 C 2.851562 -0.390625 2.628906 -0.242188 2.359375 -0.140625 C 2.085938 -0.046875 1.765625 0 1.390625 0 Z M 1.203125 -3.21875 L 1.203125 -0.796875 L 1.46875 -0.796875 C 1.6875 -0.796875 1.867188 -0.828125 2.015625 -0.890625 C 2.171875 -0.953125 2.296875 -1.035156 2.390625 -1.140625 C 2.492188 -1.253906 2.566406 -1.382812 2.609375 -1.53125 C 2.660156 -1.675781 2.6875 -1.835938 2.6875 -2.015625 C 2.6875 -2.179688 2.660156 -2.335938 2.609375 -2.484375 C 2.566406 -2.628906 2.5 -2.753906 2.40625 -2.859375 C 2.3125 -2.972656 2.1875 -3.0625 2.03125 -3.125 C 1.875 -3.1875 1.6875 -3.21875 1.46875 -3.21875 Z M 1.203125 -3.21875 "/></g></g></g><g fill="#7acb53" fill-opacity="1"><g transform="translate(124.344811, 48.559119)"><g><path d="M 1.65625 0.09375 C 1.425781 0.09375 1.21875 0.0625 1.03125 0 C 0.84375 -0.0703125 0.679688 -0.171875 0.546875 -0.296875 C 0.421875 -0.421875 0.328125 -0.566406 0.265625 -0.734375 C 0.203125 -0.910156 0.171875 -1.097656 0.171875 -1.296875 C 0.171875 -1.503906 0.203125 -1.691406 0.265625 -1.859375 C 0.335938 -2.035156 0.4375 -2.1875 0.5625 -2.3125 C 0.6875 -2.4375 0.84375 -2.53125 1.03125 -2.59375 C 1.21875 -2.664062 1.425781 -2.703125 1.65625 -2.703125 C 1.882812 -2.703125 2.085938 -2.664062 2.265625 -2.59375 C 2.453125 -2.53125 2.609375 -2.4375 2.734375 -2.3125 C 2.867188 -2.1875 2.96875 -2.035156 3.03125 -1.859375 C 3.101562 -1.691406 3.140625 -1.503906 3.140625 -1.296875 C 3.140625 -1.023438 3.078125 -0.785156 2.953125 -0.578125 C 2.835938 -0.367188 2.671875 -0.203125 2.453125 -0.078125 C 2.234375 0.0351562 1.96875 0.09375 1.65625 0.09375 Z M 1.65625 -0.59375 C 1.78125 -0.59375 1.890625 -0.625 1.984375 -0.6875 C 2.078125 -0.75 2.144531 -0.832031 2.1875 -0.9375 C 2.226562 -1.039062 2.25 -1.160156 2.25 -1.296875 C 2.25 -1.429688 2.226562 -1.550781 2.1875 -1.65625 C 2.144531 -1.757812 2.078125 -1.84375 1.984375 -1.90625 C 1.890625 -1.976562 1.78125 -2.015625 1.65625 -2.015625 C 1.519531 -2.015625 1.40625 -1.976562 1.3125 -1.90625 C 1.226562 -1.84375 1.160156 -1.753906 1.109375 -1.640625 C 1.066406 -1.535156 1.046875 -1.421875 1.046875 -1.296875 C 1.046875 -1.160156 1.066406 -1.039062 1.109375 -0.9375 C 1.160156 -0.832031 1.226562 -0.75 1.3125 -0.6875 C 1.40625 -0.625 1.519531 -0.59375 1.65625 -0.59375 Z M 1.65625 -0.59375 "/></g></g></g><g fill="#7acb53" fill-opacity="1"><g transform="translate(127.989328, 48.559119)"><g><path d="M 1.546875 0.09375 C 1.335938 0.09375 1.144531 0.0546875 0.96875 -0.015625 C 0.800781 -0.0859375 0.65625 -0.1875 0.53125 -0.3125 C 0.414062 -0.4375 0.328125 -0.582031 0.265625 -0.75 C 0.203125 -0.925781 0.171875 -1.113281 0.171875 -1.3125 C 0.171875 -1.5 0.203125 -1.675781 0.265625 -1.84375 C 0.328125 -2.007812 0.414062 -2.15625 0.53125 -2.28125 C 0.65625 -2.414062 0.800781 -2.519531 0.96875 -2.59375 C 1.144531 -2.664062 1.335938 -2.703125 1.546875 -2.703125 C 1.816406 -2.703125 2.050781 -2.65625 2.25 -2.5625 C 2.445312 -2.476562 2.609375 -2.359375 2.734375 -2.203125 C 2.859375 -2.046875 2.9375 -1.875 2.96875 -1.6875 C 2.96875 -1.644531 2.957031 -1.613281 2.9375 -1.59375 C 2.914062 -1.570312 2.890625 -1.5625 2.859375 -1.5625 L 2.203125 -1.5625 C 2.140625 -1.5625 2.097656 -1.597656 2.078125 -1.671875 C 2.054688 -1.773438 2.003906 -1.859375 1.921875 -1.921875 C 1.847656 -1.984375 1.75 -2.015625 1.625 -2.015625 C 1.519531 -2.015625 1.429688 -1.992188 1.359375 -1.953125 C 1.285156 -1.910156 1.222656 -1.851562 1.171875 -1.78125 C 1.128906 -1.71875 1.097656 -1.644531 1.078125 -1.5625 C 1.054688 -1.476562 1.046875 -1.394531 1.046875 -1.3125 C 1.046875 -1.175781 1.066406 -1.050781 1.109375 -0.9375 C 1.148438 -0.832031 1.210938 -0.75 1.296875 -0.6875 C 1.378906 -0.625 1.488281 -0.59375 1.625 -0.59375 C 1.75 -0.59375 1.847656 -0.617188 1.921875 -0.671875 C 2.003906 -0.734375 2.054688 -0.820312 2.078125 -0.9375 C 2.097656 -1.007812 2.140625 -1.046875 2.203125 -1.046875 L 2.859375 -1.046875 C 2.890625 -1.046875 2.914062 -1.035156 2.9375 -1.015625 C 2.957031 -1.003906 2.96875 -0.984375 2.96875 -0.953125 C 2.9375 -0.753906 2.859375 -0.578125 2.734375 -0.421875 C 2.617188 -0.265625 2.457031 -0.140625 2.25 -0.046875 C 2.050781 0.046875 1.816406 0.09375 1.546875 0.09375 Z M 1.546875 0.09375 "/></g></g></g><g fill="#7acb53" fill-opacity="1"><g transform="translate(131.462553, 48.559119)"><g><path d="M 1.453125 -2.609375 L 1.84375 -2.609375 C 1.914062 -2.609375 1.953125 -2.566406 1.953125 -2.484375 L 1.953125 -2.03125 C 1.953125 -1.957031 1.914062 -1.921875 1.84375 -1.921875 L 1.453125 -1.921875 L 1.453125 -0.125 C 1.453125 -0.0390625 1.410156 0 1.328125 0 L 0.6875 0 C 0.601562 0 0.5625 -0.0390625 0.5625 -0.125 L 0.5625 -1.921875 L 0.1875 -1.921875 C 0.113281 -1.921875 0.078125 -1.957031 0.078125 -2.03125 L 0.078125 -2.484375 C 0.078125 -2.566406 0.113281 -2.609375 0.1875 -2.609375 L 0.5625 -2.609375 C 0.5625 -2.910156 0.640625 -3.15625 0.796875 -3.34375 C 0.953125 -3.539062 1.171875 -3.671875 1.453125 -3.734375 Z M 1.453125 -2.609375 "/></g></g></g><g fill="#7acb53" fill-opacity="1"><g transform="translate(133.82536, 48.559119)"><g><path d="M 1.65625 0.09375 C 1.425781 0.09375 1.21875 0.0625 1.03125 0 C 0.84375 -0.0703125 0.679688 -0.171875 0.546875 -0.296875 C 0.421875 -0.421875 0.328125 -0.566406 0.265625 -0.734375 C 0.203125 -0.910156 0.171875 -1.097656 0.171875 -1.296875 C 0.171875 -1.503906 0.203125 -1.691406 0.265625 -1.859375 C 0.335938 -2.035156 0.4375 -2.1875 0.5625 -2.3125 C 0.6875 -2.4375 0.84375 -2.53125 1.03125 -2.59375 C 1.21875 -2.664062 1.425781 -2.703125 1.65625 -2.703125 C 1.882812 -2.703125 2.085938 -2.664062 2.265625 -2.59375 C 2.453125 -2.53125 2.609375 -2.4375 2.734375 -2.3125 C 2.867188 -2.1875 2.96875 -2.035156 3.03125 -1.859375 C 3.101562 -1.691406 3.140625 -1.503906 3.140625 -1.296875 C 3.140625 -1.023438 3.078125 -0.785156 2.953125 -0.578125 C 2.835938 -0.367188 2.671875 -0.203125 2.453125 -0.078125 C 2.234375 0.0351562 1.96875 0.09375 1.65625 0.09375 Z M 1.65625 -0.59375 C 1.78125 -0.59375 1.890625 -0.625 1.984375 -0.6875 C 2.078125 -0.75 2.144531 -0.832031 2.1875 -0.9375 C 2.226562 -1.039062 2.25 -1.160156 2.25 -1.296875 C 2.25 -1.429688 2.226562 -1.550781 2.1875 -1.65625 C 2.144531 -1.757812 2.078125 -1.84375 1.984375 -1.90625 C 1.890625 -1.976562 1.78125 -2.015625 1.65625 -2.015625 C 1.519531 -2.015625 1.40625 -1.976562 1.3125 -1.90625 C 1.226562 -1.84375 1.160156 -1.753906 1.109375 -1.640625 C 1.066406 -1.535156 1.046875 -1.421875 1.046875 -1.296875 C 1.046875 -1.160156 1.066406 -1.039062 1.109375 -0.9375 C 1.160156 -0.832031 1.226562 -0.75 1.3125 -0.6875 C 1.40625 -0.625 1.519531 -0.59375 1.65625 -0.59375 Z M 1.65625 -0.59375 "/></g></g></g><g fill="#7acb53" fill-opacity="1"><g transform="translate(137.469882, 48.559119)"><g><path d="M 2.015625 -2.640625 C 2.046875 -2.628906 2.066406 -2.609375 2.078125 -2.578125 C 2.097656 -2.554688 2.109375 -2.53125 2.109375 -2.5 L 2.109375 -1.921875 C 2.109375 -1.878906 2.097656 -1.847656 2.078125 -1.828125 C 2.054688 -1.816406 2.023438 -1.816406 1.984375 -1.828125 C 1.878906 -1.847656 1.785156 -1.859375 1.703125 -1.859375 C 1.378906 -1.859375 1.203125 -1.675781 1.171875 -1.3125 L 1.171875 -0.125 C 1.171875 -0.0390625 1.128906 0 1.046875 0 L 0.40625 0 C 0.320312 0 0.28125 -0.0390625 0.28125 -0.125 L 0.28125 -2.65625 C 0.632812 -2.582031 0.882812 -2.410156 1.03125 -2.140625 C 1.125 -2.328125 1.238281 -2.457031 1.375 -2.53125 C 1.519531 -2.613281 1.671875 -2.65625 1.828125 -2.65625 C 1.859375 -2.65625 1.890625 -2.65625 1.921875 -2.65625 C 1.953125 -2.65625 1.984375 -2.648438 2.015625 -2.640625 Z M 2.015625 -2.640625 "/></g></g></g><g fill="#7acb53" fill-opacity="1"><g transform="translate(140.021702, 48.559119)"><g><path d="M 1.578125 0.09375 C 1.328125 0.09375 1.097656 0.0625 0.890625 0 C 0.691406 -0.0703125 0.523438 -0.175781 0.390625 -0.3125 C 0.265625 -0.445312 0.1875 -0.625 0.15625 -0.84375 C 0.144531 -0.882812 0.148438 -0.914062 0.171875 -0.9375 C 0.191406 -0.957031 0.222656 -0.96875 0.265625 -0.96875 L 0.90625 -0.96875 C 0.945312 -0.96875 0.972656 -0.957031 0.984375 -0.9375 C 1.003906 -0.914062 1.019531 -0.890625 1.03125 -0.859375 C 1.050781 -0.785156 1.082031 -0.726562 1.125 -0.6875 C 1.164062 -0.644531 1.210938 -0.609375 1.265625 -0.578125 C 1.328125 -0.554688 1.382812 -0.539062 1.4375 -0.53125 C 1.5 -0.519531 1.550781 -0.515625 1.59375 -0.515625 C 1.726562 -0.515625 1.828125 -0.539062 1.890625 -0.59375 C 1.960938 -0.644531 2 -0.707031 2 -0.78125 C 2 -0.832031 1.972656 -0.875 1.921875 -0.90625 C 1.867188 -0.945312 1.800781 -0.976562 1.71875 -1 C 1.632812 -1.019531 1.539062 -1.035156 1.4375 -1.046875 C 1.34375 -1.066406 1.238281 -1.085938 1.125 -1.109375 C 1.007812 -1.128906 0.898438 -1.15625 0.796875 -1.1875 C 0.703125 -1.21875 0.613281 -1.257812 0.53125 -1.3125 C 0.445312 -1.363281 0.378906 -1.429688 0.328125 -1.515625 C 0.273438 -1.609375 0.25 -1.722656 0.25 -1.859375 C 0.25 -2.023438 0.296875 -2.171875 0.390625 -2.296875 C 0.484375 -2.421875 0.625 -2.519531 0.8125 -2.59375 C 1 -2.664062 1.222656 -2.703125 1.484375 -2.703125 C 1.835938 -2.703125 2.125 -2.640625 2.34375 -2.515625 C 2.5625 -2.390625 2.703125 -2.195312 2.765625 -1.9375 C 2.773438 -1.894531 2.769531 -1.863281 2.75 -1.84375 C 2.726562 -1.820312 2.695312 -1.8125 2.65625 -1.8125 L 2.03125 -1.8125 C 1.96875 -1.8125 1.921875 -1.84375 1.890625 -1.90625 C 1.859375 -1.988281 1.804688 -2.050781 1.734375 -2.09375 C 1.671875 -2.132812 1.570312 -2.15625 1.4375 -2.15625 C 1.332031 -2.15625 1.253906 -2.132812 1.203125 -2.09375 C 1.160156 -2.0625 1.140625 -2.023438 1.140625 -1.984375 C 1.140625 -1.921875 1.164062 -1.875 1.21875 -1.84375 C 1.269531 -1.8125 1.335938 -1.785156 1.421875 -1.765625 C 1.503906 -1.742188 1.597656 -1.722656 1.703125 -1.703125 C 1.804688 -1.691406 1.910156 -1.675781 2.015625 -1.65625 C 2.128906 -1.632812 2.238281 -1.601562 2.34375 -1.5625 C 2.445312 -1.53125 2.535156 -1.484375 2.609375 -1.421875 C 2.691406 -1.359375 2.757812 -1.28125 2.8125 -1.1875 C 2.863281 -1.101562 2.890625 -0.992188 2.890625 -0.859375 C 2.890625 -0.660156 2.835938 -0.488281 2.734375 -0.34375 C 2.628906 -0.195312 2.476562 -0.0859375 2.28125 -0.015625 C 2.082031 0.0546875 1.847656 0.09375 1.578125 0.09375 Z M 1.578125 0.09375 "/></g></g></g><g clip-path="url(#ddab1f4cae)"><path fill="#008080" d="M 55.132812 18.660156 C 52.53125 16.179688 49.039062 14.796875 45.441406 14.808594 C 41.726562 14.820312 38.238281 16.273438 35.609375 18.902344 L 30.601562 23.914062 L 25.714844 19.027344 C 20.273438 13.585938 11.414062 13.414062 5.917969 18.804688 C 0.367188 24.246094 0.335938 33.1875 5.820312 38.671875 L 32.351562 65.203125 C 35.378906 68.230469 35.519531 73.160156 32.550781 76.246094 C 29.511719 79.402344 24.46875 79.441406 21.386719 76.355469 L 14.8125 69.785156 C 14.535156 69.507812 14.507812 69.066406 14.746094 68.753906 C 15.71875 67.480469 16.253906 65.855469 16.132812 64.109375 C 15.898438 60.65625 13.074219 57.882812 9.621094 57.703125 C 5.621094 57.496094 2.304688 60.714844 2.355469 64.683594 C 2.40625 68.359375 5.402344 71.390625 9.074219 71.484375 C 10.261719 71.515625 11.378906 71.242188 12.363281 70.742188 C 12.664062 70.589844 13.027344 70.65625 13.261719 70.890625 L 20.050781 77.683594 C 21.945312 79.574219 24.425781 80.519531 26.910156 80.519531 C 29.394531 80.519531 31.878906 79.574219 33.769531 77.683594 C 37.550781 73.902344 37.550781 67.75 33.769531 63.964844 L 7.148438 37.34375 C 2.429688 32.625 2.429688 24.949219 7.148438 20.230469 C 11.867188 15.515625 19.542969 15.515625 24.261719 20.230469 L 29.910156 25.882812 C 30.101562 26.070312 30.351562 26.160156 30.601562 26.15625 C 30.847656 26.160156 31.097656 26.070312 31.289062 25.882812 L 36.828125 20.34375 C 39.125 18.046875 42.226562 16.695312 45.472656 16.6875 C 48.714844 16.683594 51.761719 17.941406 54.054688 20.230469 C 56.34375 22.523438 57.601562 25.566406 57.597656 28.804688 C 57.589844 32.054688 56.238281 35.160156 53.941406 37.457031 L 52.152344 39.246094 C 52.003906 39.394531 51.804688 39.476562 51.59375 39.476562 L 46.257812 39.476562 C 45.960938 39.476562 45.691406 39.308594 45.558594 39.046875 L 42.980469 33.890625 C 42.691406 33.3125 41.871094 33.3125 41.582031 33.890625 L 37.152344 42.742188 C 36.863281 43.320312 36.039062 43.320312 35.75 42.742188 L 34.238281 39.714844 C 33.949219 39.136719 33.128906 39.136719 32.839844 39.714844 L 31.328125 42.742188 C 31.039062 43.316406 30.214844 43.316406 29.925781 42.742188 L 25.5 33.886719 C 25.210938 33.308594 24.386719 33.308594 24.101562 33.886719 L 21.523438 39.042969 C 21.390625 39.304688 21.117188 39.472656 20.824219 39.472656 L 16.101562 39.472656 C 15.585938 39.472656 15.136719 39.871094 15.121094 40.386719 C 15.105469 40.917969 15.53125 41.351562 16.0625 41.351562 L 21.984375 41.351562 C 22.28125 41.351562 22.554688 41.183594 22.683594 40.921875 L 24.101562 38.089844 C 24.386719 37.511719 25.210938 37.511719 25.5 38.089844 L 29.925781 46.941406 C 30.214844 47.519531 31.039062 47.519531 31.328125 46.941406 L 32.839844 43.917969 C 33.128906 43.339844 33.949219 43.339844 34.238281 43.917969 L 35.75 46.941406 C 36.039062 47.519531 36.863281 47.519531 37.152344 46.941406 L 41.578125 38.089844 C 41.867188 37.511719 42.691406 37.511719 42.976562 38.089844 L 44.394531 40.921875 C 44.527344 41.1875 44.800781 41.355469 45.09375 41.355469 L 52.304688 41.355469 C 52.304688 41.355469 52.304688 41.355469 52.308594 41.355469 C 52.367188 41.355469 52.421875 41.347656 52.476562 41.339844 C 52.480469 41.339844 52.484375 41.335938 52.488281 41.335938 C 52.542969 41.328125 52.597656 41.3125 52.648438 41.289062 C 52.65625 41.289062 52.660156 41.289062 52.664062 41.285156 C 52.714844 41.265625 52.765625 41.238281 52.8125 41.207031 C 52.816406 41.203125 52.824219 41.203125 52.828125 41.199219 C 52.878906 41.164062 52.925781 41.128906 52.96875 41.085938 C 52.96875 41.082031 52.96875 41.082031 52.972656 41.082031 L 55.246094 38.808594 C 57.933594 36.117188 59.503906 32.476562 59.476562 28.667969 C 59.445312 24.863281 57.902344 21.300781 55.132812 18.660156 Z M 4.234375 64.589844 C 4.234375 61.824219 6.488281 59.574219 9.253906 59.574219 C 12.019531 59.574219 14.269531 61.824219 14.269531 64.589844 C 14.269531 67.355469 12.019531 69.605469 9.253906 69.605469 C 6.488281 69.605469 4.234375 67.355469 4.234375 64.589844 Z M 4.234375 64.589844 " fill-opacity="1" fill-rule="nonzero"/></g><g clip-path="url(#2bb3adfec1)"><path fill="#ffffff" d="M 114.136719 25.933594 C 112.46875 25.933594 111.101562 24.566406 111.101562 22.898438 C 111.101562 21.230469 112.46875 19.863281 114.136719 19.863281 C 115.804688 19.863281 117.171875 21.230469 117.171875 22.898438 C 117.171875 24.566406 115.804688 25.933594 114.136719 25.933594 Z M 114.136719 25.933594 " fill-opacity="1" fill-rule="nonzero"/></g><g clip-path="url(#313af43bcf)"><path fill="#008080" d="M 103.882812 16.664062 C 106.320312 17.484375 108.449219 18.808594 110.261719 20.636719 C 111.484375 21.878906 112.476562 23.28125 113.238281 24.847656 C 114.539062 23.675781 115.777344 22.460938 117.101562 21.351562 C 120.875 18.226562 125.171875 16.621094 130.121094 17.078125 C 135.070312 17.53125 139.367188 20.09375 142.492188 24.152344 C 146.203125 28.992188 147.570312 34.546875 147.050781 40.582031 C 146.59375 46.136719 144.46875 51.109375 141.582031 55.796875 C 134.289062 67.691406 125.5625 74.65625 123.308594 76.242188 C 121.050781 77.824219 118.421875 79.433594 116.558594 80.515625 C 119.386719 79.339844 122.121094 77.972656 124.761719 76.414062 C 126.644531 75.285156 128.46875 74.0625 130.230469 72.746094 C 134.441406 69.644531 140.257812 65.128906 145.316406 58.011719 C 148.789062 53.082031 151.371094 47.746094 152.085938 41.710938 C 153.148438 32.640625 150.742188 24.671875 143.902344 18.402344 C 139.28125 14.125 133.703125 12.257812 127.410156 13.082031 C 125.5 13.304688 123.675781 13.824219 121.941406 14.644531 C 117.25 16.859375 114.300781 20.941406 113.496094 21.742188 C 112.464844 20.699219 111.324219 19.792969 110.066406 19.03125 C 108.152344 17.863281 106.089844 17.074219 103.882812 16.664062 Z M 103.882812 16.664062 " fill-opacity="1" fill-rule="nonzero"/></g><g fill="#545454" fill-opacity="1"><g transform="translate(38.444086, 11.182225)"><g><path d="M 2.109375 0 L 0.65625 0 C 0.539062 0 0.484375 -0.0546875 0.484375 -0.171875 L 0.484375 -5.90625 C 0.484375 -6.03125 0.539062 -6.09375 0.65625 -6.09375 L 2.109375 -6.09375 C 2.671875 -6.09375 3.160156 -6.015625 3.578125 -5.859375 C 3.992188 -5.703125 4.335938 -5.484375 4.609375 -5.203125 C 4.878906 -4.929688 5.078125 -4.609375 5.203125 -4.234375 C 5.335938 -3.867188 5.40625 -3.472656 5.40625 -3.046875 C 5.40625 -2.617188 5.335938 -2.21875 5.203125 -1.84375 C 5.078125 -1.476562 4.878906 -1.15625 4.609375 -0.875 C 4.335938 -0.601562 3.992188 -0.390625 3.578125 -0.234375 C 3.171875 -0.078125 2.679688 0 2.109375 0 Z M 1.828125 -4.875 L 1.828125 -1.21875 L 2.234375 -1.21875 C 2.554688 -1.21875 2.832031 -1.265625 3.0625 -1.359375 C 3.300781 -1.453125 3.492188 -1.582031 3.640625 -1.75 C 3.785156 -1.914062 3.890625 -2.109375 3.953125 -2.328125 C 4.023438 -2.546875 4.0625 -2.785156 4.0625 -3.046875 C 4.0625 -3.296875 4.023438 -3.53125 3.953125 -3.75 C 3.890625 -3.976562 3.785156 -4.175781 3.640625 -4.34375 C 3.492188 -4.507812 3.304688 -4.640625 3.078125 -4.734375 C 2.847656 -4.828125 2.566406 -4.875 2.234375 -4.875 Z M 1.828125 -4.875 "/></g></g></g><g fill="#545454" fill-opacity="1"><g transform="translate(44.598817, 11.182225)"><g><path d="M 3.8125 -3.3125 C 4.03125 -3.738281 4.398438 -3.976562 4.921875 -4.03125 L 4.921875 0.09375 C 4.398438 0.0390625 4.03125 -0.203125 3.8125 -0.640625 C 3.632812 -0.398438 3.410156 -0.207031 3.140625 -0.0625 C 2.867188 0.0703125 2.566406 0.140625 2.234375 0.140625 C 1.941406 0.140625 1.671875 0.0859375 1.421875 -0.015625 C 1.179688 -0.117188 0.972656 -0.265625 0.796875 -0.453125 C 0.628906 -0.640625 0.5 -0.863281 0.40625 -1.125 C 0.3125 -1.382812 0.265625 -1.671875 0.265625 -1.984375 C 0.265625 -2.285156 0.3125 -2.566406 0.40625 -2.828125 C 0.5 -3.085938 0.628906 -3.3125 0.796875 -3.5 C 0.972656 -3.6875 1.179688 -3.832031 1.421875 -3.9375 C 1.671875 -4.039062 1.941406 -4.09375 2.234375 -4.09375 C 2.566406 -4.09375 2.867188 -4.019531 3.140625 -3.875 C 3.410156 -3.738281 3.632812 -3.550781 3.8125 -3.3125 Z M 2.640625 -0.9375 C 2.828125 -0.9375 2.988281 -0.976562 3.125 -1.0625 C 3.269531 -1.144531 3.378906 -1.265625 3.453125 -1.421875 C 3.535156 -1.585938 3.578125 -1.769531 3.578125 -1.96875 C 3.578125 -2.175781 3.535156 -2.359375 3.453125 -2.515625 C 3.378906 -2.671875 3.269531 -2.789062 3.125 -2.875 C 2.988281 -2.96875 2.828125 -3.015625 2.640625 -3.015625 C 2.460938 -3.015625 2.300781 -2.96875 2.15625 -2.875 C 2.007812 -2.789062 1.894531 -2.671875 1.8125 -2.515625 C 1.738281 -2.359375 1.703125 -2.175781 1.703125 -1.96875 C 1.703125 -1.769531 1.738281 -1.585938 1.8125 -1.421875 C 1.894531 -1.265625 2.007812 -1.144531 2.15625 -1.0625 C 2.300781 -0.976562 2.460938 -0.9375 2.640625 -0.9375 Z M 2.640625 -0.9375 "/></g></g></g><g fill="#545454" fill-opacity="1"><g transform="translate(50.467281, 11.182225)"><g><path d="M 2.375 0.140625 C 2 0.140625 1.660156 0.09375 1.359375 0 C 1.054688 -0.101562 0.804688 -0.257812 0.609375 -0.46875 C 0.410156 -0.675781 0.285156 -0.945312 0.234375 -1.28125 C 0.222656 -1.34375 0.234375 -1.390625 0.265625 -1.421875 C 0.296875 -1.453125 0.34375 -1.46875 0.40625 -1.46875 L 1.375 -1.46875 C 1.425781 -1.46875 1.46875 -1.453125 1.5 -1.421875 C 1.53125 -1.390625 1.550781 -1.347656 1.5625 -1.296875 C 1.59375 -1.191406 1.640625 -1.101562 1.703125 -1.03125 C 1.773438 -0.96875 1.851562 -0.914062 1.9375 -0.875 C 2.019531 -0.84375 2.101562 -0.816406 2.1875 -0.796875 C 2.269531 -0.785156 2.34375 -0.78125 2.40625 -0.78125 C 2.613281 -0.78125 2.769531 -0.816406 2.875 -0.890625 C 2.976562 -0.960938 3.03125 -1.054688 3.03125 -1.171875 C 3.03125 -1.265625 2.988281 -1.335938 2.90625 -1.390625 C 2.832031 -1.441406 2.734375 -1.484375 2.609375 -1.515625 C 2.484375 -1.546875 2.34375 -1.570312 2.1875 -1.59375 C 2.03125 -1.613281 1.867188 -1.640625 1.703125 -1.671875 C 1.535156 -1.703125 1.375 -1.738281 1.21875 -1.78125 C 1.0625 -1.832031 0.921875 -1.898438 0.796875 -1.984375 C 0.671875 -2.078125 0.570312 -2.1875 0.5 -2.3125 C 0.425781 -2.445312 0.390625 -2.613281 0.390625 -2.8125 C 0.390625 -3.070312 0.457031 -3.296875 0.59375 -3.484375 C 0.738281 -3.679688 0.945312 -3.832031 1.21875 -3.9375 C 1.5 -4.039062 1.84375 -4.09375 2.25 -4.09375 C 2.78125 -4.09375 3.210938 -3.992188 3.546875 -3.796875 C 3.878906 -3.609375 4.09375 -3.328125 4.1875 -2.953125 C 4.207031 -2.878906 4.203125 -2.828125 4.171875 -2.796875 C 4.140625 -2.765625 4.09375 -2.75 4.03125 -2.75 L 3.078125 -2.75 C 2.984375 -2.75 2.910156 -2.800781 2.859375 -2.90625 C 2.804688 -3.019531 2.726562 -3.109375 2.625 -3.171875 C 2.519531 -3.234375 2.375 -3.265625 2.1875 -3.265625 C 2.03125 -3.265625 1.914062 -3.238281 1.84375 -3.1875 C 1.769531 -3.132812 1.734375 -3.070312 1.734375 -3 C 1.734375 -2.914062 1.769531 -2.847656 1.84375 -2.796875 C 1.914062 -2.742188 2.015625 -2.703125 2.140625 -2.671875 C 2.273438 -2.640625 2.421875 -2.609375 2.578125 -2.578125 C 2.734375 -2.554688 2.894531 -2.53125 3.0625 -2.5 C 3.226562 -2.46875 3.390625 -2.425781 3.546875 -2.375 C 3.703125 -2.320312 3.84375 -2.25 3.96875 -2.15625 C 4.09375 -2.0625 4.191406 -1.945312 4.265625 -1.8125 C 4.335938 -1.675781 4.375 -1.503906 4.375 -1.296875 C 4.375 -0.992188 4.296875 -0.734375 4.140625 -0.515625 C 3.984375 -0.304688 3.753906 -0.144531 3.453125 -0.03125 C 3.160156 0.0820312 2.800781 0.140625 2.375 0.140625 Z M 2.375 0.140625 "/></g></g></g><g fill="#545454" fill-opacity="1"><g transform="translate(55.602185, 11.182225)"><g><path d="M 2.984375 -4.03125 C 3.335938 -4.03125 3.617188 -3.953125 3.828125 -3.796875 C 4.046875 -3.648438 4.207031 -3.441406 4.3125 -3.171875 C 4.414062 -2.910156 4.46875 -2.597656 4.46875 -2.234375 L 4.46875 -0.171875 C 4.46875 -0.0546875 4.40625 0 4.28125 0 L 3.296875 0 C 3.179688 0 3.125 -0.0546875 3.125 -0.171875 L 3.125 -2.234375 C 3.125 -2.472656 3.078125 -2.648438 2.984375 -2.765625 C 2.890625 -2.890625 2.738281 -2.953125 2.53125 -2.953125 C 2.382812 -2.953125 2.253906 -2.90625 2.140625 -2.8125 C 2.023438 -2.726562 1.929688 -2.609375 1.859375 -2.453125 C 1.796875 -2.304688 1.765625 -2.144531 1.765625 -1.96875 L 1.765625 -0.171875 C 1.765625 -0.0546875 1.707031 0 1.59375 0 L 0.609375 0 C 0.492188 0 0.4375 -0.0546875 0.4375 -0.171875 L 0.4375 -6.71875 C 0.863281 -6.625 1.191406 -6.429688 1.421875 -6.140625 C 1.648438 -5.847656 1.765625 -5.472656 1.765625 -5.015625 L 1.765625 -3.46875 C 1.898438 -3.632812 2.070312 -3.769531 2.28125 -3.875 C 2.488281 -3.976562 2.722656 -4.03125 2.984375 -4.03125 Z M 2.984375 -4.03125 "/></g></g></g><g fill="#545454" fill-opacity="1"><g transform="translate(60.942842, 11.182225)"><g><path d="M 3.125 -4.09375 C 3.414062 -4.09375 3.679688 -4.039062 3.921875 -3.9375 C 4.160156 -3.832031 4.367188 -3.6875 4.546875 -3.5 C 4.722656 -3.3125 4.859375 -3.085938 4.953125 -2.828125 C 5.046875 -2.566406 5.09375 -2.285156 5.09375 -1.984375 C 5.09375 -1.671875 5.046875 -1.382812 4.953125 -1.125 C 4.859375 -0.863281 4.722656 -0.640625 4.546875 -0.453125 C 4.367188 -0.265625 4.160156 -0.117188 3.921875 -0.015625 C 3.679688 0.0859375 3.414062 0.140625 3.125 0.140625 C 2.800781 0.140625 2.503906 0.078125 2.234375 -0.046875 C 1.972656 -0.179688 1.753906 -0.363281 1.578125 -0.59375 C 1.359375 -0.132812 0.976562 0.09375 0.4375 0.09375 L 0.4375 -6.71875 C 0.863281 -6.625 1.191406 -6.429688 1.421875 -6.140625 C 1.648438 -5.847656 1.765625 -5.472656 1.765625 -5.015625 L 1.765625 -3.578125 C 1.941406 -3.742188 2.144531 -3.867188 2.375 -3.953125 C 2.601562 -4.046875 2.851562 -4.09375 3.125 -4.09375 Z M 2.71875 -0.9375 C 2.894531 -0.9375 3.050781 -0.976562 3.1875 -1.0625 C 3.332031 -1.144531 3.445312 -1.265625 3.53125 -1.421875 C 3.613281 -1.585938 3.65625 -1.769531 3.65625 -1.96875 C 3.65625 -2.175781 3.613281 -2.359375 3.53125 -2.515625 C 3.445312 -2.671875 3.332031 -2.789062 3.1875 -2.875 C 3.050781 -2.96875 2.894531 -3.015625 2.71875 -3.015625 C 2.53125 -3.015625 2.363281 -2.96875 2.21875 -2.875 C 2.082031 -2.789062 1.972656 -2.671875 1.890625 -2.515625 C 1.804688 -2.359375 1.765625 -2.175781 1.765625 -1.96875 C 1.765625 -1.769531 1.804688 -1.585938 1.890625 -1.421875 C 1.972656 -1.265625 2.082031 -1.144531 2.21875 -1.0625 C 2.363281 -0.976562 2.53125 -0.9375 2.71875 -0.9375 Z M 2.71875 -0.9375 "/></g></g></g><g fill="#545454" fill-opacity="1"><g transform="translate(66.802364, 11.182225)"><g><path d="M 2.5 0.140625 C 2.15625 0.140625 1.84375 0.0859375 1.5625 -0.015625 C 1.28125 -0.117188 1.039062 -0.265625 0.84375 -0.453125 C 0.65625 -0.640625 0.507812 -0.863281 0.40625 -1.125 C 0.300781 -1.382812 0.25 -1.664062 0.25 -1.96875 C 0.25 -2.28125 0.300781 -2.5625 0.40625 -2.8125 C 0.507812 -3.070312 0.65625 -3.296875 0.84375 -3.484375 C 1.039062 -3.679688 1.28125 -3.832031 1.5625 -3.9375 C 1.84375 -4.039062 2.15625 -4.09375 2.5 -4.09375 C 2.851562 -4.09375 3.164062 -4.039062 3.4375 -3.9375 C 3.71875 -3.832031 3.953125 -3.679688 4.140625 -3.484375 C 4.335938 -3.296875 4.488281 -3.070312 4.59375 -2.8125 C 4.695312 -2.5625 4.75 -2.28125 4.75 -1.96875 C 4.75 -1.550781 4.660156 -1.179688 4.484375 -0.859375 C 4.304688 -0.546875 4.046875 -0.300781 3.703125 -0.125 C 3.367188 0.0507812 2.96875 0.140625 2.5 0.140625 Z M 2.5 -0.90625 C 2.695312 -0.90625 2.863281 -0.953125 3 -1.046875 C 3.132812 -1.140625 3.238281 -1.265625 3.3125 -1.421875 C 3.382812 -1.578125 3.421875 -1.753906 3.421875 -1.953125 C 3.421875 -2.160156 3.382812 -2.34375 3.3125 -2.5 C 3.238281 -2.664062 3.132812 -2.796875 3 -2.890625 C 2.863281 -2.992188 2.695312 -3.046875 2.5 -3.046875 C 2.3125 -3.046875 2.144531 -2.992188 2 -2.890625 C 1.863281 -2.796875 1.757812 -2.664062 1.6875 -2.5 C 1.613281 -2.34375 1.578125 -2.160156 1.578125 -1.953125 C 1.578125 -1.765625 1.613281 -1.585938 1.6875 -1.421875 C 1.757812 -1.265625 1.863281 -1.140625 2 -1.046875 C 2.132812 -0.953125 2.300781 -0.90625 2.5 -0.90625 Z M 2.5 -0.90625 "/></g></g></g><g fill="#545454" fill-opacity="1"><g transform="translate(72.321939, 11.182225)"><g><path d="M 3.8125 -3.3125 C 4.03125 -3.738281 4.398438 -3.976562 4.921875 -4.03125 L 4.921875 0.09375 C 4.398438 0.0390625 4.03125 -0.203125 3.8125 -0.640625 C 3.632812 -0.398438 3.410156 -0.207031 3.140625 -0.0625 C 2.867188 0.0703125 2.566406 0.140625 2.234375 0.140625 C 1.941406 0.140625 1.671875 0.0859375 1.421875 -0.015625 C 1.179688 -0.117188 0.972656 -0.265625 0.796875 -0.453125 C 0.628906 -0.640625 0.5 -0.863281 0.40625 -1.125 C 0.3125 -1.382812 0.265625 -1.671875 0.265625 -1.984375 C 0.265625 -2.285156 0.3125 -2.566406 0.40625 -2.828125 C 0.5 -3.085938 0.628906 -3.3125 0.796875 -3.5 C 0.972656 -3.6875 1.179688 -3.832031 1.421875 -3.9375 C 1.671875 -4.039062 1.941406 -4.09375 2.234375 -4.09375 C 2.566406 -4.09375 2.867188 -4.019531 3.140625 -3.875 C 3.410156 -3.738281 3.632812 -3.550781 3.8125 -3.3125 Z M 2.640625 -0.9375 C 2.828125 -0.9375 2.988281 -0.976562 3.125 -1.0625 C 3.269531 -1.144531 3.378906 -1.265625 3.453125 -1.421875 C 3.535156 -1.585938 3.578125 -1.769531 3.578125 -1.96875 C 3.578125 -2.175781 3.535156 -2.359375 3.453125 -2.515625 C 3.378906 -2.671875 3.269531 -2.789062 3.125 -2.875 C 2.988281 -2.96875 2.828125 -3.015625 2.640625 -3.015625 C 2.460938 -3.015625 2.300781 -2.96875 2.15625 -2.875 C 2.007812 -2.789062 1.894531 -2.671875 1.8125 -2.515625 C 1.738281 -2.359375 1.703125 -2.175781 1.703125 -1.96875 C 1.703125 -1.769531 1.738281 -1.585938 1.8125 -1.421875 C 1.894531 -1.265625 2.007812 -1.144531 2.15625 -1.0625 C 2.300781 -0.976562 2.460938 -0.9375 2.640625 -0.9375 Z M 2.640625 -0.9375 "/></g></g></g><g fill="#545454" fill-opacity="1"><g transform="translate(78.190402, 11.182225)"><g><path d="M 3.0625 -4 C 3.113281 -3.988281 3.148438 -3.960938 3.171875 -3.921875 C 3.191406 -3.890625 3.203125 -3.847656 3.203125 -3.796875 L 3.203125 -2.90625 C 3.203125 -2.84375 3.179688 -2.796875 3.140625 -2.765625 C 3.109375 -2.742188 3.0625 -2.742188 3 -2.765625 C 2.84375 -2.796875 2.707031 -2.8125 2.59375 -2.8125 C 2.101562 -2.8125 1.828125 -2.535156 1.765625 -1.984375 L 1.765625 -0.171875 C 1.765625 -0.0546875 1.707031 0 1.59375 0 L 0.609375 0 C 0.492188 0 0.4375 -0.0546875 0.4375 -0.171875 L 0.4375 -4.03125 C 0.96875 -3.925781 1.34375 -3.664062 1.5625 -3.25 C 1.707031 -3.539062 1.882812 -3.742188 2.09375 -3.859375 C 2.300781 -3.972656 2.523438 -4.03125 2.765625 -4.03125 C 2.816406 -4.03125 2.867188 -4.023438 2.921875 -4.015625 C 2.972656 -4.015625 3.019531 -4.007812 3.0625 -4 Z M 3.0625 -4 "/></g></g></g><g fill="#545454" fill-opacity="1"><g transform="translate(82.054997, 11.182225)"><g><path d="M 3.578125 -3.578125 L 3.578125 -6.71875 C 4.015625 -6.625 4.347656 -6.429688 4.578125 -6.140625 C 4.804688 -5.847656 4.921875 -5.472656 4.921875 -5.015625 L 4.921875 0.09375 C 4.367188 0.09375 3.988281 -0.132812 3.78125 -0.59375 C 3.601562 -0.363281 3.378906 -0.179688 3.109375 -0.046875 C 2.847656 0.078125 2.554688 0.140625 2.234375 0.140625 C 1.941406 0.140625 1.671875 0.0859375 1.421875 -0.015625 C 1.179688 -0.117188 0.972656 -0.265625 0.796875 -0.453125 C 0.628906 -0.640625 0.5 -0.863281 0.40625 -1.125 C 0.3125 -1.382812 0.265625 -1.671875 0.265625 -1.984375 C 0.265625 -2.285156 0.3125 -2.566406 0.40625 -2.828125 C 0.5 -3.085938 0.628906 -3.3125 0.796875 -3.5 C 0.972656 -3.6875 1.179688 -3.832031 1.421875 -3.9375 C 1.671875 -4.039062 1.941406 -4.09375 2.234375 -4.09375 C 2.503906 -4.09375 2.753906 -4.046875 2.984375 -3.953125 C 3.210938 -3.867188 3.410156 -3.742188 3.578125 -3.578125 Z M 2.640625 -0.9375 C 2.828125 -0.9375 2.988281 -0.976562 3.125 -1.0625 C 3.269531 -1.144531 3.378906 -1.265625 3.453125 -1.421875 C 3.535156 -1.585938 3.578125 -1.769531 3.578125 -1.96875 C 3.578125 -2.175781 3.535156 -2.359375 3.453125 -2.515625 C 3.378906 -2.671875 3.269531 -2.789062 3.125 -2.875 C 2.988281 -2.96875 2.828125 -3.015625 2.640625 -3.015625 C 2.460938 -3.015625 2.300781 -2.96875 2.15625 -2.875 C 2.007812 -2.789062 1.894531 -2.671875 1.8125 -2.515625 C 1.738281 -2.359375 1.703125 -2.175781 1.703125 -1.96875 C 1.703125 -1.769531 1.738281 -1.585938 1.8125 -1.421875 C 1.894531 -1.265625 2.007812 -1.144531 2.15625 -1.0625 C 2.300781 -0.976562 2.460938 -0.9375 2.640625 -0.9375 Z M 2.640625 -0.9375 "/></g></g></g><g fill="#545454" fill-opacity="1"><g transform="translate(87.923459, 11.182225)"><g/></g></g><g fill="#545454" fill-opacity="1"><g transform="translate(90.759287, 11.182225)"><g><path d="M 1.6875 -6.09375 L 2.5 -6.09375 C 3.03125 -6.09375 3.457031 -6.007812 3.78125 -5.84375 C 4.101562 -5.675781 4.335938 -5.445312 4.484375 -5.15625 C 4.628906 -4.863281 4.703125 -4.523438 4.703125 -4.140625 C 4.703125 -3.722656 4.628906 -3.367188 4.484375 -3.078125 C 4.335938 -2.785156 4.101562 -2.5625 3.78125 -2.40625 C 3.457031 -2.25 3.03125 -2.171875 2.5 -2.171875 L 1.828125 -2.171875 L 1.828125 -1.6875 C 1.828125 -1.3125 1.769531 -0.988281 1.65625 -0.71875 C 1.539062 -0.457031 1.378906 -0.25 1.171875 -0.09375 C 0.972656 0.0625 0.742188 0.148438 0.484375 0.171875 L 0.484375 -5.90625 C 0.484375 -6.03125 0.539062 -6.09375 0.65625 -6.09375 L 1.640625 -6.09375 C 1.660156 -6.09375 1.675781 -6.085938 1.6875 -6.078125 Z M 1.828125 -3.328125 L 2.375 -3.328125 C 2.425781 -3.328125 2.492188 -3.328125 2.578125 -3.328125 C 2.660156 -3.335938 2.742188 -3.351562 2.828125 -3.375 C 2.921875 -3.40625 3.003906 -3.445312 3.078125 -3.5 C 3.160156 -3.550781 3.226562 -3.628906 3.28125 -3.734375 C 3.332031 -3.835938 3.359375 -3.972656 3.359375 -4.140625 C 3.359375 -4.296875 3.332031 -4.421875 3.28125 -4.515625 C 3.226562 -4.617188 3.164062 -4.695312 3.09375 -4.75 C 3.019531 -4.8125 2.9375 -4.851562 2.84375 -4.875 C 2.75 -4.894531 2.660156 -4.90625 2.578125 -4.90625 C 2.492188 -4.914062 2.425781 -4.921875 2.375 -4.921875 L 1.828125 -4.921875 Z M 1.828125 -3.328125 "/></g></g></g><g fill="#545454" fill-opacity="1"><g transform="translate(96.135729, 11.182225)"><g><path d="M 3.8125 -3.3125 C 4.03125 -3.738281 4.398438 -3.976562 4.921875 -4.03125 L 4.921875 0.09375 C 4.398438 0.0390625 4.03125 -0.203125 3.8125 -0.640625 C 3.632812 -0.398438 3.410156 -0.207031 3.140625 -0.0625 C 2.867188 0.0703125 2.566406 0.140625 2.234375 0.140625 C 1.941406 0.140625 1.671875 0.0859375 1.421875 -0.015625 C 1.179688 -0.117188 0.972656 -0.265625 0.796875 -0.453125 C 0.628906 -0.640625 0.5 -0.863281 0.40625 -1.125 C 0.3125 -1.382812 0.265625 -1.671875 0.265625 -1.984375 C 0.265625 -2.285156 0.3125 -2.566406 0.40625 -2.828125 C 0.5 -3.085938 0.628906 -3.3125 0.796875 -3.5 C 0.972656 -3.6875 1.179688 -3.832031 1.421875 -3.9375 C 1.671875 -4.039062 1.941406 -4.09375 2.234375 -4.09375 C 2.566406 -4.09375 2.867188 -4.019531 3.140625 -3.875 C 3.410156 -3.738281 3.632812 -3.550781 3.8125 -3.3125 Z M 2.640625 -0.9375 C 2.828125 -0.9375 2.988281 -0.976562 3.125 -1.0625 C 3.269531 -1.144531 3.378906 -1.265625 3.453125 -1.421875 C 3.535156 -1.585938 3.578125 -1.769531 3.578125 -1.96875 C 3.578125 -2.175781 3.535156 -2.359375 3.453125 -2.515625 C 3.378906 -2.671875 3.269531 -2.789062 3.125 -2.875 C 2.988281 -2.96875 2.828125 -3.015625 2.640625 -3.015625 C 2.460938 -3.015625 2.300781 -2.96875 2.15625 -2.875 C 2.007812 -2.789062 1.894531 -2.671875 1.8125 -2.515625 C 1.738281 -2.359375 1.703125 -2.175781 1.703125 -1.96875 C 1.703125 -1.769531 1.738281 -1.585938 1.8125 -1.421875 C 1.894531 -1.265625 2.007812 -1.144531 2.15625 -1.0625 C 2.300781 -0.976562 2.460938 -0.9375 2.640625 -0.9375 Z M 2.640625 -0.9375 "/></g></g></g><g fill="#545454" fill-opacity="1"><g transform="translate(102.004192, 11.182225)"><g><path d="M 2.96875 -4.09375 C 3.320312 -4.09375 3.609375 -4.015625 3.828125 -3.859375 C 4.046875 -3.710938 4.203125 -3.503906 4.296875 -3.234375 C 4.398438 -2.960938 4.453125 -2.648438 4.453125 -2.296875 L 4.453125 -0.171875 C 4.453125 -0.0546875 4.394531 0 4.28125 0 L 3.296875 0 C 3.171875 0 3.109375 -0.0546875 3.109375 -0.171875 L 3.109375 -2.296875 C 3.109375 -2.523438 3.0625 -2.703125 2.96875 -2.828125 C 2.875 -2.953125 2.722656 -3.015625 2.515625 -3.015625 C 2.328125 -3.015625 2.160156 -2.941406 2.015625 -2.796875 C 1.878906 -2.660156 1.796875 -2.46875 1.765625 -2.21875 L 1.765625 -0.171875 C 1.765625 -0.0546875 1.707031 0 1.59375 0 L 0.609375 0 C 0.492188 0 0.4375 -0.0546875 0.4375 -0.171875 L 0.4375 -4.03125 C 0.695312 -3.976562 0.921875 -3.882812 1.109375 -3.75 C 1.296875 -3.625 1.445312 -3.460938 1.5625 -3.265625 C 1.757812 -3.566406 1.976562 -3.78125 2.21875 -3.90625 C 2.457031 -4.03125 2.707031 -4.09375 2.96875 -4.09375 Z M 2.96875 -4.09375 "/></g></g></g><g fill="#545454" fill-opacity="1"><g transform="translate(107.344848, 11.182225)"><g><path d="M 2.546875 -4.09375 C 2.847656 -4.09375 3.128906 -4.046875 3.390625 -3.953125 C 3.648438 -3.867188 3.878906 -3.738281 4.078125 -3.5625 C 4.285156 -3.394531 4.445312 -3.179688 4.5625 -2.921875 C 4.675781 -2.671875 4.734375 -2.382812 4.734375 -2.0625 L 4.734375 -1.890625 C 4.734375 -1.773438 4.671875 -1.71875 4.546875 -1.71875 L 1.671875 -1.71875 C 1.679688 -1.445312 1.757812 -1.226562 1.90625 -1.0625 C 2.0625 -0.894531 2.265625 -0.8125 2.515625 -0.8125 C 2.710938 -0.8125 2.875 -0.851562 3 -0.9375 C 3.132812 -1.019531 3.226562 -1.117188 3.28125 -1.234375 C 3.300781 -1.285156 3.328125 -1.320312 3.359375 -1.34375 C 3.390625 -1.375 3.425781 -1.390625 3.46875 -1.390625 L 4.46875 -1.390625 C 4.53125 -1.390625 4.578125 -1.367188 4.609375 -1.328125 C 4.640625 -1.296875 4.644531 -1.25 4.625 -1.1875 C 4.519531 -0.882812 4.363281 -0.632812 4.15625 -0.4375 C 3.957031 -0.238281 3.71875 -0.09375 3.4375 0 C 3.164062 0.09375 2.867188 0.140625 2.546875 0.140625 C 2.203125 0.140625 1.890625 0.09375 1.609375 0 C 1.328125 -0.09375 1.082031 -0.234375 0.875 -0.421875 C 0.675781 -0.609375 0.519531 -0.832031 0.40625 -1.09375 C 0.289062 -1.351562 0.234375 -1.644531 0.234375 -1.96875 C 0.234375 -2.289062 0.289062 -2.582031 0.40625 -2.84375 C 0.53125 -3.101562 0.691406 -3.328125 0.890625 -3.515625 C 1.097656 -3.703125 1.34375 -3.84375 1.625 -3.9375 C 1.90625 -4.039062 2.210938 -4.09375 2.546875 -4.09375 Z M 1.6875 -2.4375 L 3.296875 -2.4375 C 3.285156 -2.65625 3.207031 -2.832031 3.0625 -2.96875 C 2.925781 -3.101562 2.738281 -3.171875 2.5 -3.171875 C 2.25 -3.171875 2.054688 -3.101562 1.921875 -2.96875 C 1.796875 -2.832031 1.71875 -2.65625 1.6875 -2.4375 Z M 1.6875 -2.4375 "/></g></g></g><g fill="#545454" fill-opacity="1"><g transform="translate(112.83759, 11.182225)"><g><path d="M 1.59375 0 L 0.609375 0 C 0.492188 0 0.4375 -0.0546875 0.4375 -0.171875 L 0.4375 -6.71875 C 0.863281 -6.625 1.191406 -6.429688 1.421875 -6.140625 C 1.648438 -5.847656 1.765625 -5.472656 1.765625 -5.015625 L 1.765625 -0.171875 C 1.765625 -0.0546875 1.707031 0 1.59375 0 Z M 1.59375 0 "/></g></g></g></svg>